<svg width="2216" height="2196" viewBox="0 0 2216 2196" fill="none" xmlns="http://www.w3.org/2000/svg">
<path d="M2203.93 935.301C2196.6 881.371 2183.75 828.607 2168.04 776.551C2154.89 733.006 2138.88 690.512 2120.24 648.974C2101.1 606.328 2079.75 564.847 2055.41 524.993C2043.04 504.721 2029.31 485.253 2015.74 465.746C1988.11 426.064 1957.48 388.791 1924.56 353.411C1888.85 315.029 1850.8 279.152 1809.94 246.278C1776.25 219.179 1741.5 193.533 1704.73 170.814C1670.6 149.72 1635.1 131.074 1599.41 112.696C1565.79 95.3885 1531.36 80.0701 1495.84 67.5055C1445.5 49.6818 1394.05 35.6447 1341.78 24.4189C1278.57 10.8216 1214.69 3.05724 1150.17 0.724093C1084.25 -1.6473 1018.48 1.83329 953.168 10.7643C893.325 18.9494 834.286 31.686 776.834 50.638C744.963 61.1563 713.398 72.4013 682.291 85.3292C655.314 96.5359 628.529 108.068 602.699 121.436C560.982 143.008 520.851 167.314 481.677 193.457C435.658 224.151 393.08 259.072 352.51 296.23C298.518 345.685 250.071 400.38 206.977 459.837C171.052 509.387 139.755 561.654 112.472 616.272C84.4628 672.344 61.2333 730.481 44.0837 790.894C37.3156 814.723 30.0122 838.533 25.4619 862.801C19.038 897.091 11.811 931.265 8.50346 966.129C5.55915 997.129 0.817667 1027.94 1.42947 1059.21C3.9914 1061.54 5.44444 1063.76 0.722072 1065.21C-0.27211 1068.5 -0.138277 1071.83 0.511765 1075.16C-0.10004 1099.98 0.339695 1124.76 1.10445 1149.61C2.13687 1184.05 5.34884 1218.26 10.1477 1252.26C20.2233 1323.6 36.7038 1393.46 60.9083 1461.46C89.1852 1540.9 124.899 1616.71 170.46 1687.7C213.726 1755.13 263.588 1817.36 320.581 1873.68C343.543 1896.36 367.537 1917.92 392.525 1938.55C416.328 1958.19 440.189 1977.7 465.387 1995.39C519.36 2033.27 576.315 2066.13 636.234 2093.8C677.894 2113.04 720.376 2130.21 764.12 2143.87C850.977 2170.97 939.727 2188.6 1030.73 2193.73C1099.5 2197.61 1168.26 2196.88 1236.7 2188.73C1293.9 2181.93 1350.32 2170.8 1405.9 2155.25C1467.92 2137.9 1527.8 2114.97 1586.06 2087.78C1611.99 2075.67 1637.05 2061.81 1661.9 2047.56C1736.51 2004.84 1805.03 1953.91 1867.74 1895.22C1934.23 1832.97 1992.09 1763.39 2041.4 1686.8C2053.23 1668.42 2065.94 1650.45 2074.49 1630.1C2081.05 1622.55 2085.92 1614.03 2089.14 1604.55C2089.46 1604.09 2089.59 1603.59 2089.57 1603.04C2091.77 1602.37 2093.21 1601.26 2092.12 1598.68C2096.34 1589.9 2100.59 1581.14 2104.81 1572.36C2105.79 1571.62 2107.2 1571.08 2107.66 1570.11C2114.28 1556.01 2121.31 1542.07 2127.12 1527.63C2132.44 1514.47 2139.55 1501.95 2142.11 1487.76C2142.52 1486.11 2142.92 1484.49 2143.32 1482.84C2147.12 1481.22 2146.72 1477.81 2146.78 1474.6C2147.08 1474.24 2147.22 1473.82 2147.18 1473.36C2149.15 1472.38 2150.45 1471.06 2149.46 1468.63C2149.95 1466.38 2150.45 1464.12 2150.97 1461.86C2155.25 1458.06 2156.91 1453.14 2157.1 1447.58C2157.39 1446.35 2157.66 1445.13 2157.94 1443.91C2165.92 1427.04 2170.14 1408.91 2175.07 1391.07C2177.22 1383.28 2182.05 1376.04 2180.87 1367.41C2188.71 1341.08 2194.35 1314.28 2197.86 1287.05C2199.64 1286.19 2199.87 1284.83 2199.16 1283.15C2202.15 1261.56 2205.13 1239.99 2208.11 1218.4C2210.39 1215.99 2209.81 1213.27 2208.99 1210.54C2209.28 1206.12 2209.58 1201.7 2209.89 1197.26C2214.23 1176.65 2214.17 1155.61 2215.13 1134.75C2218.17 1067.91 2212.97 1001.43 2203.96 935.262L2203.93 935.301ZM1888.39 423.482C1888.75 419.887 1889.5 416.119 1893.01 414.647C1896.84 413.059 1898.77 416.903 1900.55 419.16C1918.1 441.516 1937.01 462.763 1954.06 485.616C1968.51 504.989 1980.56 525.796 1994.02 545.704C2010.08 569.437 2023 595.274 2037.38 620.135C2052.37 646.029 2063.15 673.95 2076.02 700.858C2077.24 703.44 2078.52 706.041 2079.31 708.775C2080.9 714.302 2079.58 715.794 2073.97 715.431C2069.67 714.436 2065.71 713.231 2061.81 710.554C2044.24 698.544 2034.42 679.975 2021.32 664.178C2003.5 642.702 1982.99 625.892 1953.49 623.425C1943.32 622.564 1933.18 622.43 1923.03 622.105C1912.94 621.78 1909.55 617.114 1913.74 607.896C1919.49 595.216 1924.77 582.767 1927.2 568.71C1931.92 541.363 1925.86 516.463 1914.31 492.176C1907.22 477.259 1900.18 462.323 1892.9 447.502C1889.15 439.852 1887.55 431.935 1888.39 423.482ZM2048.72 816.33C2049.75 839.431 2049.52 862.667 2043.44 885.368C2037.02 909.349 2021.03 925.834 2001.44 939.374C1995.45 943.505 1995.01 937.251 1995.05 934.096C1995.2 919.007 1990.88 904.702 1985.97 890.99C1978.11 869.112 1974 846.01 1964.14 824.878C1960.54 817.171 1960.77 808.68 1957.81 801.164C1953.77 790.914 1947.64 781.543 1943.2 771.426C1935.82 754.559 1927.98 737.863 1920.51 721.091C1915.08 708.909 1910.14 696.134 1902.8 684.736C1901.25 682.346 1899.59 679.975 1898.42 677.412C1895.06 669.915 1897.68 664.216 1905.61 662.858C1911.21 661.883 1917.01 662.074 1922.71 661.73C1946.3 661.443 1965.82 671.082 1982.53 686.821C1992.45 696.154 2002.3 705.582 2011.13 716.119C2023.33 730.673 2038.34 741.592 2057.26 746.393C2067.74 749.051 2067.8 750.81 2063.11 760.774C2054.86 778.311 2047.78 796.02 2048.7 816.368L2048.72 816.33ZM2034.28 1274.28C2027.23 1278 2019.29 1279.46 2012.74 1284.05C2010.9 1284.53 2009.07 1285 2007.23 1285.48C2004.61 1286.17 2001.99 1286.84 1999.37 1287.53C1998.15 1286.78 1996.92 1286.02 1995.7 1285.27C2004.88 1251.92 2005.76 1217.48 2010.16 1183.47C2012.74 1163.53 2013.44 1143.58 2013.71 1123.9C2014.04 1100.07 2015.26 1076 2011.95 1052C2009.93 1037.29 2009.22 1022.3 2007.65 1007.44C2006.96 1000.78 2011.44 997.875 2020.71 999.921C2041.51 1004.51 2057.53 1016.52 2069.96 1033.52C2080.26 1047.64 2085.43 1064.18 2090.51 1080.51C2097.11 1101.7 2106.95 1120.42 2124.6 1134.42C2128.85 1137.79 2130.24 1141.27 2125.27 1145.11C2101.22 1163.68 2090.36 1190.53 2079.58 1217.52C2070.23 1240.92 2057.82 1261.86 2034.28 1274.29V1274.28ZM2058.93 1306.19C2059.02 1303.54 2058.2 1301.05 2056.88 1298.33C2058.22 1301.05 2059.04 1303.54 2058.93 1306.19ZM2040.97 1518.22C2021.4 1524.48 2003.52 1533.33 1989.12 1548.75C1975.74 1563.09 1961.82 1576.74 1945.19 1587.85C1923.83 1602.1 1900.68 1605.14 1876.25 1603.99C1868.62 1603.63 1866.84 1600 1871.33 1594.15C1889.34 1570.66 1902.99 1544.42 1918.86 1519.58C1923.18 1512.81 1922.04 1504.45 1925.42 1497.05C1935.15 1475.77 1947.66 1455.94 1957.5 1434.88C1966.95 1414.72 1970.22 1392.16 1974.8 1370.26C1976.37 1362.82 1978.09 1355.4 1980.37 1348.15C1982.41 1341.63 1986.39 1339.68 1992.37 1344.6C1996.29 1347.81 2000.58 1350.56 2004.71 1353.53C2006.62 1359.17 2012.3 1361.67 2015.3 1366.66C2029.54 1390.36 2031.43 1415.85 2029.1 1442.66C2027.5 1461.02 2024.88 1479.9 2033.35 1497.66C2034.19 1500.17 2035.05 1502.66 2035.89 1505.16C2035.91 1510.17 2039.62 1513.75 2040.97 1518.22ZM1700.45 1706.69C1701.12 1713.5 1700.1 1715.87 1692.92 1715.51C1679.53 1714.84 1666.3 1716.9 1653.01 1718.38C1617.45 1722.33 1590.65 1744.06 1562.08 1762.36C1536.68 1778.64 1512.51 1797.03 1484.39 1808.76C1477.33 1811.7 1469.84 1813.31 1460.89 1813.25C1455.8 1813.63 1450.16 1811.74 1445.02 1808.3C1439.27 1804.45 1437.77 1801.62 1445.42 1797.24C1470.7 1782.71 1496.18 1768.48 1520.39 1752.09C1549.64 1732.3 1578.53 1712.01 1605.54 1689.23C1669.59 1635.21 1720.83 1570.47 1763.64 1498.79C1771.13 1486.25 1778.47 1473.61 1785.97 1461.06C1787.17 1459.05 1786.98 1455.42 1790.44 1455.69C1793.67 1455.95 1795.05 1458.98 1796.29 1461.5C1803.08 1475.33 1801.17 1489.58 1797.02 1503.44C1791.45 1521.99 1780.79 1538.17 1768.82 1552.88C1744.29 1582.98 1726.66 1617.27 1707.75 1650.68C1698.19 1667.54 1698.57 1687.57 1700.47 1706.73L1700.45 1706.69ZM519.36 1648.76C497.278 1611.49 467.166 1579.63 447.779 1540.64C444.816 1534.69 442.56 1528.38 439.596 1522.43C433.038 1509.27 438.87 1499.31 447.55 1490C451.947 1485.29 453.534 1490.09 455.14 1492.63C466.21 1510.04 477.318 1527.4 489.516 1544.06C535.841 1607.23 587.978 1664.6 650.917 1711.97C700.856 1749.55 753.471 1782.73 807.902 1813.21C811.344 1815.14 817.194 1816.98 816.793 1820.52C816.219 1825.49 810.082 1826.64 805.532 1827.77C802.186 1828.61 798.591 1828.44 796.985 1828.57C781.079 1828.21 768.25 1823.06 755.67 1817.9C714.392 1800.97 675.122 1779.82 636.941 1756.95C611.628 1741.78 585.492 1738 557.292 1743.52C551.862 1744.58 547.905 1745.53 548.727 1737.5C552.168 1703.57 535.726 1676.4 519.36 1648.76ZM200.132 1490.7C197.8 1470.72 198.144 1450.73 200.744 1430.77C202.12 1420.15 207.283 1411.66 214.337 1404.05C222.539 1395.2 230.722 1386.3 239.039 1377.53C243.628 1372.69 246.859 1371.18 249.746 1379.76C267.411 1432.2 287.658 1483.59 312.704 1533.03C330.37 1567.89 350.311 1601.47 369.85 1635.28C373.139 1640.96 372.623 1642.01 366.505 1642.64C360.826 1643.24 355.263 1644.82 351.382 1644.52C335.226 1644.67 321.881 1641 309.071 1634.94C285.976 1624 265.633 1609.04 246.973 1591.83C231.736 1577.79 214.586 1567.3 194.721 1561.39C190.228 1560.05 188.259 1558.86 191.089 1553.68C194.358 1547.66 195.849 1540.67 198.947 1534.54C206.307 1520 201.834 1505.39 200.132 1490.72V1490.7ZM104.232 1141.96C103.18 1145.11 106.01 1146.64 110.254 1147.77C117.691 1135.55 123.255 1122.58 126.218 1108.55C135.051 1094.51 139.888 1078.56 147.612 1063.99C161.282 1046.22 177.801 1032.49 199.979 1026.6C204.663 1025.36 209.271 1024.9 214.031 1025.34C217.052 1029.6 212.387 1032.8 212.368 1036.68C212.292 1061.6 211.355 1086.53 212.77 1111.43C213.993 1111.07 215.026 1110.44 215.504 1109.39C215.026 1110.44 213.993 1111.05 212.77 1111.43C212.846 1115.79 212.903 1120.15 212.98 1124.51C214.624 1124.94 215.962 1126.1 216.593 1127.36C215.982 1126.1 214.643 1124.95 212.98 1124.51C212.387 1140.6 213.133 1156.6 215.79 1172.5C216.804 1213.21 222.425 1253.51 226.688 1293.94C227.472 1301.41 227.491 1308.95 230.665 1316.27C233.399 1322.56 229.059 1326.06 222.348 1324.27C207.55 1320.33 194.855 1311.03 179.866 1307.61C173.27 1301.95 166.674 1296.31 160.078 1290.65C148.205 1276.32 140.558 1259.47 135.013 1242.19C128.13 1220.73 116.812 1203.33 98.7064 1190.19C96.9092 1188.89 95.0929 1187.61 93.4296 1186.13C83.7936 1177.64 83.8127 1176.17 93.9266 1168.35C101.096 1162.82 107.233 1156.57 110.216 1147.77C105.991 1146.64 103.161 1145.11 104.193 1141.96H104.232ZM255.902 1109.25C255.118 1107.3 254.525 1105.35 254.181 1103.4C254.544 1105.35 255.118 1107.3 255.902 1109.25C255.997 1102.25 256.093 1095.27 256.189 1088.27C259.974 1074.95 258.617 1061.12 259.554 1047.58C262.555 1004.36 268.692 961.615 278.596 919.542C293.929 854.367 320.141 793.342 350.827 733.943C373.062 690.856 400.402 651.422 430.304 613.595C439.481 601.986 449.634 591.143 460.13 579.057C467.395 596.88 462.845 612.141 455.197 625.987C437.99 657.121 419.732 687.682 401.569 718.28C384.916 746.316 375.127 776.59 370.978 808.795C369.143 823.023 374.84 835.664 380.175 848.248C383.272 855.572 386.503 862.935 390.671 869.667C395.298 877.125 392.028 879.726 385.241 881.199C379.008 882.556 373.139 884.947 367.174 887.165C337.826 898.085 322.914 921.761 311.614 948.821L308.613 958.135C307.14 959.187 306.089 960.487 306.185 962.438C298.881 983.092 298.384 1004.8 296.472 1026.27C293.968 1054.48 290.909 1082.61 281.349 1109.48C277.047 1121.61 270.317 1132.18 255.921 1139.03C255.921 1130.73 255.921 1123.92 255.921 1117.11C255.175 1117.59 254.449 1118.51 253.684 1119.22C254.43 1118.53 255.175 1117.59 255.921 1117.11C255.921 1114.49 255.921 1111.89 255.921 1109.27L255.902 1109.25ZM497.259 570.202C497.163 566.645 497.718 563.929 502.325 564.121C560.236 566.511 605.433 537.672 649.311 504.874C674.185 486.285 700.435 469.514 729.228 457.599C739.629 453.296 751.521 452.551 762.973 453.889C768.154 454.501 773.029 458.001 774.024 463.05C774.999 467.907 769.875 470.565 766.108 472.746C736.665 489.766 708.006 507.972 680.246 527.594C651.701 547.77 624.361 569.418 598.512 593.094C554.596 633.331 518.844 680.108 485.845 729.257C465.885 758.995 447.855 789.9 430.782 821.378C427.762 826.963 425.525 832.967 422.638 838.628C421.089 841.669 419.56 845.628 415.468 845.456C411.128 845.283 410.325 840.981 409.522 837.749C407.84 830.998 406.712 824.094 405.909 820.02C406.234 795.255 414.13 775.653 425.467 757.351C448.238 720.613 471.066 683.933 490.146 645.054C497.603 629.869 497.507 613.748 497.928 597.626C498.176 588.485 497.526 579.324 497.259 570.183V570.202ZM1729.66 619.561C1737.21 644.136 1750.81 665.574 1763.92 687.376C1777.5 709.923 1792.74 731.495 1804.36 755.228C1808.32 763.298 1809.46 772.21 1812.27 780.625C1815.7 788.6 1817.69 796.517 1815.96 804.32C1817.69 796.536 1815.7 788.6 1812.27 780.625C1811.59 792.023 1813.08 803.497 1811.07 814.857C1810.82 816.177 1810.55 817.496 1810.31 818.816C1810.15 819.389 1810.1 819.982 1810.13 820.575C1808.01 823.31 1805.91 826.045 1802.93 829.869C1796.62 818.108 1790.67 806.825 1784.53 795.618C1754.84 741.459 1721 690.225 1680.45 643.39C1652.21 610.803 1621.03 581.485 1587.86 554.214C1556.43 528.378 1522.47 506.002 1487.85 484.679C1474.69 476.57 1461.18 469.036 1447.81 461.252C1440.01 456.72 1443.83 453.201 1449.17 450.906C1461.19 445.704 1473.76 446.565 1486.24 449.013C1520.35 455.668 1547.71 475.519 1575.33 494.815C1594.59 508.259 1613.51 522.507 1634.56 532.834C1660.11 545.379 1687.75 549.452 1716.22 546.297C1719.09 545.972 1722.15 543.868 1721.14 549.567C1716.81 573.74 1722.63 596.746 1729.62 619.581L1729.66 619.561ZM1954.18 1099.88C1943.72 1083.13 1938.46 1064.48 1934.71 1045.46C1927.91 1010.92 1922.32 976.016 1914.37 941.841C1904.43 899.099 1879.13 866.875 1834.3 854.31C1833.1 853.966 1831.95 853.392 1830.04 852.646C1843.86 830.826 1846.23 806.538 1846.71 781.677C1847.13 759.435 1838.98 739.699 1828.53 721.206C1813.06 693.859 1795.74 667.563 1779.22 640.808C1774.94 631.438 1770.21 622.277 1764.4 613.748C1764.67 612.218 1764.42 610.936 1762.81 610.248C1762.05 604.664 1761.21 599.137 1756.85 594.968C1757.33 591.545 1755.93 588.58 1754.5 585.635C1754.06 583.799 1753.41 581.983 1753.2 580.108C1752.66 575.404 1751.38 569.647 1756.68 567.429C1761.65 565.345 1763.16 571.139 1765.76 574.084C1793.06 605.123 1818.01 637.921 1839.63 673.185C1866.76 717.458 1889.19 763.987 1908.77 812.103C1931.42 867.773 1944.42 925.853 1954.81 984.641C1961.33 1021.51 1965.51 1058.77 1966.81 1096.25C1966.93 1099.31 1968.97 1103.92 1964.21 1105.28C1959.68 1106.56 1956.62 1103.82 1954.16 1099.9L1954.18 1099.88ZM1964 1240.69C1963.83 1240.31 1963.51 1240.04 1963.07 1239.85C1963.51 1240.04 1963.83 1240.33 1964 1240.69ZM1866 1340.85C1859.54 1360.28 1849.69 1377.37 1832.54 1389.42C1829.94 1391.24 1827.21 1392.88 1824.4 1394.38C1818.85 1397.34 1816.81 1395.31 1817.53 1389.4C1818.6 1380.76 1822.71 1373.09 1825.18 1364.89C1836.42 1327.46 1845.68 1289.56 1851.95 1250.94C1850.78 1250.85 1848.98 1250.62 1847.95 1250.16C1848.98 1250.64 1850.76 1250.85 1851.95 1250.94C1858.29 1221.88 1861.7 1192.44 1863.04 1162.74C1863.11 1160.93 1863.19 1159.11 1863.28 1157.27C1864.35 1125.47 1863.76 1093.76 1860.44 1062.02C1855.62 1016.14 1848.1 970.795 1836.94 926.064C1834.93 918.051 1832.29 910.191 1830.13 902.216C1829.39 899.462 1828.91 896.498 1831.78 894.375C1834.55 892.329 1837.15 893.572 1839.84 894.7C1858.62 902.484 1867.22 918.357 1873.11 936.41C1883 966.741 1887.01 998.296 1892.65 1029.53C1898.62 1062.5 1909.09 1094.15 1926.19 1123.27C1930.81 1131.15 1937.12 1137.35 1945.34 1141.32C1948.57 1142.89 1950.62 1143.68 1946.81 1146.97C1918.19 1171.58 1900.03 1202.66 1890.89 1239.07C1882.4 1272.94 1874.3 1306.9 1866.02 1340.83L1866 1340.85ZM1811.95 1273.55C1809.43 1279.92 1805.85 1285.79 1801.38 1291.14C1799.25 1300.36 1797.13 1309.56 1794.57 1320.71C1778.66 1298.45 1763.81 1277.58 1748.86 1256.78C1722.93 1220.73 1697.05 1184.68 1670.91 1148.78C1666.61 1142.89 1665.73 1138.4 1670.55 1132.09C1684.2 1114.21 1697.62 1096.1 1709.49 1076.91C1727.67 1051.65 1745.91 1026.43 1764.02 1001.11C1774.5 986.458 1784.76 971.656 1795.68 956.146C1800.06 962.744 1800.67 969.495 1802.08 975.653C1814.03 1027.86 1821.57 1080.64 1819.43 1134.34C1817.88 1173.4 1813.1 1212.18 1807.4 1250.83C1805.41 1264.25 1803.38 1277.68 1801.38 1291.12C1805.85 1285.77 1809.43 1279.92 1811.95 1273.53V1273.55ZM373.617 1391.51C358.704 1357.24 352.567 1320.36 342.472 1284.68C330.638 1242.82 311.366 1205.75 279.8 1175.56C276.474 1172.38 278.271 1171.71 280.756 1169.46C307.045 1145.55 323.219 1115.62 328.573 1080.85C333.964 1045.76 338.82 1010.57 345.359 975.653C347.998 966.205 350.808 956.796 353.255 947.291C356.41 935.033 365.797 926.963 372.852 917.305C374.649 914.838 377.689 914.398 380.404 913.557C391.512 910.152 396.139 914.073 392.984 925.069C387.65 943.658 383.176 962.457 379.601 981.447C377.096 994.719 373.407 1007.86 373.292 1021.53C376.064 1020.08 377.249 1017.8 378.014 1015.3C377.249 1017.78 376.064 1020.08 373.292 1021.53C373.177 1023.42 373.043 1025.32 372.929 1027.21C373.923 1028.53 374.592 1029.79 374.707 1030.94C374.592 1029.79 373.923 1028.55 372.929 1027.21C370.252 1029.33 370.902 1032.15 371.284 1034.92C371.112 1036.79 370.94 1038.67 370.768 1040.54C370.29 1041.34 369.487 1042.13 369.392 1042.99C365.587 1077.79 363.465 1112.68 365.3 1147.71C366.275 1190.44 372.833 1232.49 380.978 1274.29C390.097 1321.13 401.588 1367.35 417.82 1412.29C419.712 1417.55 420.018 1423.31 414.818 1427.1C408.222 1431.9 404.876 1424.63 400.154 1422.51C398.777 1419.83 397.095 1417.53 393.768 1417.17C392.43 1414.67 390.766 1412.49 388.071 1411.34C384.209 1406.29 380.347 1401.26 376.485 1396.21C375.796 1396.15 374.974 1396.17 374.19 1396.17C374.974 1396.17 375.796 1396.13 376.485 1396.21C376.599 1393.99 375.357 1392.6 373.617 1391.51ZM404.723 1145.82C401.55 1142.11 400.135 1138.93 400.479 1136.22C400.135 1138.93 401.569 1142.11 404.723 1145.82C404.781 1140.66 404.857 1135.49 404.914 1130.33C404.972 1125.91 405.01 1121.49 405.067 1117.08C402.716 1116.75 400.785 1116.12 399.351 1115.24C400.804 1116.12 402.716 1116.75 405.067 1117.08C406.731 1101.03 408.413 1085 410.077 1068.96C410.306 1066.49 410.535 1064.03 410.765 1061.58C415.468 1047.83 416.443 1033.25 420.133 1019.29C419.808 1018.83 419.54 1018.38 419.311 1017.9C419.54 1018.36 419.808 1018.83 420.133 1019.29C423.402 1007.17 426.691 995.044 429.96 982.92C443.286 993.572 451.584 1008.41 462.042 1021.44C484.908 1049.87 507.449 1078.54 530.028 1107.19C542.188 1122.6 553.984 1138.32 566.354 1153.58C570.083 1158.19 570.216 1161.48 566.603 1166.01C562.894 1170.66 558.42 1175.02 557.579 1181.43L557.617 1181.64C543.029 1197.07 532.514 1215.39 521.425 1233.29C518.557 1234.08 517.945 1236.43 517.506 1238.9C495.729 1270.43 473.972 1301.99 452.157 1333.5C449.691 1337.06 447.951 1341.27 443.114 1344.44C422.81 1279.29 406.578 1213.98 404.704 1145.82H404.723ZM1026.11 770.565C1023.14 776.59 1019.7 778.483 1013.01 778.54C970.355 778.904 927.663 777.699 885.047 780.472C879.617 780.472 874.207 780.472 867.477 780.472C871.052 774.314 873.537 770.03 876.023 765.765C899.597 729.525 923.151 693.266 946.725 657.026C953.665 646.373 960.815 635.855 967.488 625.031C970.317 620.422 974.103 619.982 978.825 619.963C1009.72 619.925 1040.64 619.714 1071.53 619.447C1080.98 619.37 1090.4 616.98 1100.59 618.892C1096.02 632.757 1088.49 644.92 1082.24 657.638C1063.69 695.35 1044.61 732.795 1026.11 770.527V770.565ZM993.355 1096.25C994.063 1094.99 994.923 1093.51 997.026 1094.6C1000.89 1096.59 1006.36 1111.78 1003.95 1115.49C993.222 1131.86 982.247 1148.08 971.369 1164.37C970.681 1165.4 970.222 1166.66 968.635 1166.55C965.251 1166.4 959.878 1157.16 961.771 1153.64C972.114 1134.42 982.764 1115.35 993.355 1096.27V1096.25ZM983.834 1041.9C984.58 1041.27 984.79 1040.92 985 1040.94C991.482 1041.1 1001.9 1038.09 1003.56 1042.3C1006.17 1048.9 1000.47 1056.95 997.466 1065.46C992.495 1056.85 988.136 1049.32 983.834 1041.9ZM1112.43 1043.49C1101.36 1062.42 1090.63 1081.54 1079.6 1100.49C1067.31 1121.63 1054.82 1142.66 1041.29 1165.69C1035.38 1146.2 1029.97 1128.38 1024.6 1110.54C1023.47 1106.81 1025.23 1103.71 1027.08 1100.69C1039.2 1080.95 1051.44 1061.27 1063.33 1041.4C1065.41 1037.9 1067.61 1036.51 1071.59 1036.6C1084 1036.91 1096.43 1037.14 1108.83 1036.95C1114.99 1036.87 1115.22 1038.69 1112.43 1043.49ZM1118.76 1332.59C1119.67 1334.38 1120.04 1335.68 1119.83 1336.62H1050.35V1336.93C1050.35 1336.93 1050.25 1336.75 1050.2 1336.66C1037.69 1312.08 1027.25 1286.48 1013.18 1262.69C1010.79 1258.63 1011.77 1257.04 1016.39 1256.76C1034.77 1255.61 1053.16 1254.41 1071.51 1252.95C1076.43 1252.57 1079.18 1254.56 1081.26 1258.71C1093.69 1283.36 1106.2 1307.97 1118.74 1332.59H1118.76ZM1109.77 957.963C1098.45 975.557 1087.38 993.304 1075.93 1010.8C1066.39 1025.39 1066.2 1025.26 1044.48 1024.99C1039.07 1024.99 1033.66 1024.88 1028.27 1025.03C1023.74 1025.15 1021.38 1024.32 1024.14 1019.18C1035.47 997.913 1046.68 976.571 1057.92 955.228C1059.98 951.288 1063.25 950.466 1067.44 950.543C1080.16 950.791 1092.89 951.021 1105.58 950.638C1112.66 950.428 1113.25 952.589 1109.79 957.963H1109.77ZM1029.17 1180.32C1033.45 1180.13 1035.51 1181.68 1033.37 1185.85C1023.96 1204.22 1014.37 1222.53 1004.35 1241.8C998.881 1235.17 995.038 1228.97 992.151 1222.14C992.285 1219.03 991.004 1216.56 988.767 1214.49C983.968 1204.19 979.169 1193.88 973.969 1182.71C992.667 1181.91 1010.91 1181.16 1029.15 1180.32H1029.17ZM909.959 943.18L902.178 943.103C854.973 942.989 807.768 942.95 760.564 942.51C757.734 942.491 752.611 945.857 751.425 939.527C751.349 934.44 751.368 929.334 751.158 924.266C751.368 929.353 751.349 934.44 751.425 939.546C763.814 921.55 776.146 903.516 788.611 885.578C807.042 859.053 825.587 832.585 844.744 805.142C857.535 826.121 869.848 846.335 882.179 866.549C896.404 889.862 910.533 913.212 924.891 936.41C930.168 944.939 922.654 942.147 919.327 943.142C918.448 943.926 917.568 944.499 916.689 944.844C917.568 944.499 918.448 943.945 919.327 943.142C916.192 943.142 913.075 943.18 909.94 943.18H909.959ZM943.379 1183.09C934.221 1194.59 931.2 1209.08 924.451 1221.76C923.935 1223.16 923.438 1224.55 922.922 1225.97C917.74 1231.95 915.58 1239.57 911.928 1246.35L852.468 1141.8C853.138 1139.99 854.036 1138.09 855.145 1136.14C868.605 1112.39 880.994 1088.05 893.861 1063.95C895.008 1061.79 896.518 1059.82 898.794 1056.3C905.772 1069.15 912.1 1080.72 918.352 1092.35C929.46 1113.04 940.492 1133.77 951.6 1154.46C952.996 1157.08 953.856 1159.55 952.441 1162.55C949.287 1169.32 946.38 1176.23 943.379 1183.07V1183.09ZM778.23 1062.78C794.825 1089.5 811.669 1116.1 828.685 1142.55C831.476 1146.87 830.501 1150.05 828.417 1153.91C803.83 1199.54 779.3 1245.23 754.771 1290.88C747.888 1303.69 740.986 1316.48 733.492 1330.42C718.024 1311.93 703.379 1294.45 688.753 1276.93C660.649 1243.26 632.678 1209.48 604.401 1175.96C600.367 1171.16 598.895 1167.37 602.642 1161.69C641.797 1102.22 680.781 1042.63 719.841 983.092C721.007 981.313 722.403 979.688 723.932 977.641C732.612 986.84 735.499 999.462 745.345 1006.94C745.842 1007.48 746.359 1008.01 746.856 1008.55C746.951 1009.04 747.123 1009.5 747.391 1009.94C747.448 1012.08 747.085 1014.36 749.475 1015.66C757.773 1032.15 768.556 1047.14 778.249 1062.76L778.23 1062.78ZM937.834 1366.17C912.215 1409.33 887.246 1451.38 861.646 1494.55C829.373 1452.74 797.865 1411.91 765.592 1370.09C823.102 1368.79 879.311 1367.51 937.853 1366.17H937.834ZM919.021 1258.84C921.335 1258.48 923.629 1258.86 925.789 1258.8C947.107 1258.13 968.405 1257.66 989.723 1257.18C992.897 1257.1 998.04 1255.61 994.541 1262.07C982.821 1283.78 971.311 1305.6 958.005 1327.38L919.002 1258.84H919.021ZM958.119 1029.03C942.289 1029.12 926.478 1029.05 910.36 1029.05C914.242 1020.42 918.467 1010.99 922.711 1001.58C925.12 999.271 926.879 996.594 927.242 993.17C928.428 991.124 929.613 989.059 930.779 987.012C934.527 983.054 934.24 976.284 940.014 973.721C947.967 988.906 955.921 1004.11 963.893 1019.29C968.711 1028.45 968.501 1028.93 958.119 1029.01V1029.03ZM1029.51 494.872C1006.74 530.099 983.968 565.287 961.198 600.514C892.465 600.59 823.714 600.667 754.981 600.724C753.318 601.049 752.821 601.719 754.369 602.943L754.465 603.21C771.347 642.969 787.77 682.92 805.761 722.201C812.376 736.639 817.901 751.575 824.364 766.09C826.887 771.77 824.842 772.669 819.813 772.707C804.537 772.841 789.281 773.186 774.005 773.453C774.406 774.888 775.113 776.131 776.528 776.437C775.113 776.15 774.406 774.907 774.005 773.472C767.084 773.511 760.182 773.549 753.261 773.587C749.781 773.396 746.301 773.013 742.841 773.052C699.67 773.53 656.481 774.046 613.31 774.677C608.684 774.754 602.279 772.382 599.889 776.15C597.595 779.764 603.541 783.398 605.644 787.089C632.678 834.383 660.305 881.313 689.193 927.517C690.092 928.875 690.99 930.214 691.889 931.571L693.743 939.164C693.132 939.125 692.539 939.221 691.965 939.412C625.049 939.565 558.133 938.131 491.255 941.038C473.398 940.885 455.56 940.732 437.703 940.598C448.964 906.5 461.143 872.784 477.012 840.426C502 789.479 532.093 741.937 567.043 697.148C603.273 650.715 645.009 610.095 691.201 574.065C726.054 546.871 763.891 524.228 803.907 505.142C868.872 474.161 936.477 452.512 1008.04 443.314C1026.58 440.923 1045.15 440.158 1066.01 438.303C1053.1 458.288 1041.32 476.59 1029.51 494.853V494.872ZM586.812 952.073C586.353 951.747 585.798 951.518 585.225 951.327C583.332 951.365 582.185 952.34 581.669 953.908C582.204 952.34 583.332 951.384 585.225 951.327C585.817 951.499 586.372 951.747 586.831 952.073H586.812ZM467.605 1375C532.552 1374.26 597.518 1373.53 662.465 1372.73C670.686 1372.63 678.869 1372.48 686.937 1369.99C693.476 1367.98 700.167 1370.55 706.591 1371.79C712.384 1372.92 708.216 1376.9 707.127 1379.11C697.128 1399.35 686.918 1419.49 676.689 1439.62C663.574 1465.44 650.363 1491.2 637.285 1517.04C632.926 1525.64 633.462 1526.37 643.308 1526.29C706.362 1525.82 769.397 1525.28 832.451 1524.78C834.363 1524.78 836.294 1524.97 838.187 1524.73C846.886 1523.5 847.459 1526.77 843.98 1533.83C826.027 1570.36 808.342 1607 790.619 1643.64C789.701 1645.53 787.732 1647.2 788.803 1650.06C798.783 1650.06 808.897 1650.35 818.972 1650.01C864.15 1648.46 909.309 1646.83 954.468 1644.92C960.509 1644.67 964.237 1646.34 967.908 1651.33C1001.42 1696.88 1035.21 1742.22 1068.99 1787.59C1077.67 1799.25 1086.73 1810.63 1095.43 1822.28C1097.42 1824.94 1100.42 1827.19 1100.4 1831.59C1078.99 1833.52 1057.81 1831.51 1036.74 1829.91C1012.65 1828.07 988.518 1825.72 964.754 1821.09C920.36 1812.45 877.17 1799.83 836.026 1780.85C768.173 1749.57 704.584 1711.07 646.348 1664.33C618.09 1641.65 593.599 1614.74 571 1586.25C525.058 1528.3 488.751 1464.71 459.786 1396.8C458.791 1394.47 457.816 1392.1 456.937 1389.73C453.381 1380.08 456.943 1375.18 467.624 1375.04L467.605 1375ZM969.705 1625.55C962.23 1625.83 957.947 1623.16 954.047 1617.52C930.703 1583.78 907.206 1550.14 883.747 1516.48C883.995 1515.89 884.225 1515.3 884.473 1514.68C920.111 1512.41 955.787 1513.98 991.444 1513.38C1011.19 1513.06 1030.94 1513.42 1050.69 1513.19C1055.3 1513.14 1058.47 1514.34 1060.88 1518.47C1080.02 1551.14 1099.29 1583.7 1118.49 1616.33C1118.93 1617.09 1118.99 1618.07 1119.37 1619.58C1113.19 1620.23 1107.3 1621.23 1101.42 1621.42C1057.52 1622.81 1013.58 1623.83 969.686 1625.55H969.705ZM1112.24 1498.39C1095.68 1498.6 1079.14 1499.29 1062.6 1500.04C1059.26 1500.19 1056.77 1499.63 1054.75 1497.45L973.816 1355.19C998.824 1354.37 1023.83 1353.76 1048.84 1352.59C1055.61 1352.26 1056.6 1357.26 1058.47 1361.19C1069.95 1385.31 1081.15 1409.54 1092.43 1433.75C1101.01 1452.21 1109.37 1470.76 1118.28 1489.06C1121.93 1496.52 1119.77 1498.31 1112.22 1498.41L1112.24 1498.39ZM1116.4 816.463C1112.31 816.693 1111.55 823.195 1109.71 827.096C1092.31 863.872 1074.84 900.609 1057.88 937.576C1055.38 943.046 1051.88 943.084 1047.35 943.161C1022.55 943.601 997.695 942.453 972.956 944.977C972.459 945.494 971.962 945.972 971.426 946.412C971.942 945.972 972.459 945.494 972.956 944.977C966.933 943.543 961.58 947.636 955.672 947.1C954.449 946.871 953.244 946.641 952.04 946.431C954.429 932.432 962.746 920.938 968.692 908.527C986.377 871.598 1005.08 835.148 1023.01 798.315C1025.88 792.424 1029.2 790.034 1035.84 789.957C1082.91 789.422 1129.98 788.542 1177.05 787.662C1184.33 787.529 1191.62 786.974 1198.88 786.381C1203.93 785.98 1206.57 787.739 1209.07 792.577C1229.38 831.763 1250.1 870.719 1270.75 909.713C1272.05 912.18 1272.59 915.239 1275.47 916.636C1277.79 921.856 1279.7 927.307 1282.53 932.222C1285.19 936.869 1285.45 939.011 1279.13 938.972C1248.25 938.839 1217.39 938.724 1186.51 938.934C1179.82 938.973 1179.02 933.599 1177.03 929.812C1159.08 895.446 1141.49 860.889 1123.63 826.484C1121.68 822.717 1120.76 816.177 1116.39 816.425L1116.4 816.463ZM1248.13 447.961C1248.46 450.791 1250.93 449.95 1252.51 450.313C1275.26 455.477 1298.01 460.564 1320.77 465.651C1356.4 477.144 1391.97 488.695 1425.98 504.702C1472.42 526.561 1516.26 552.417 1555.43 585.769C1608.33 630.768 1656.84 679.841 1696.32 737.385C1733.16 791.086 1762.36 848.649 1784.97 909.636C1789.33 921.397 1789.06 921.761 1776.62 921.895C1772.49 921.933 1768.38 922.258 1764.25 922.449C1757.96 922.526 1751.67 922.602 1745.38 922.66C1744.9 923.539 1744.42 924.266 1743.94 924.821C1744.42 924.266 1744.9 923.558 1745.38 922.66C1742.7 921.914 1740.04 921.78 1737.42 922.889C1732.36 921.99 1727.37 922.794 1722.36 923.578C1709.13 920.766 1695.73 922.048 1682.51 922.832C1653.24 924.572 1623.95 923.482 1594.7 924.209C1579.44 924.591 1564.19 925.127 1548.93 925.356C1537.63 925.528 1538 925.528 1543.14 914.991C1562.12 875.958 1585.35 839.24 1605.54 800.877C1611.16 790.206 1617.11 779.726 1622.86 769.131C1625.35 764.541 1626.88 761.156 1618.75 761.29C1557.34 762.266 1495.91 762.878 1434.49 763.7C1427.18 763.796 1419.86 764.216 1412.59 764.981C1404.6 765.823 1404.3 762.572 1406.88 756.318C1417.07 731.648 1427.05 706.901 1437.09 682.174C1447.95 655.381 1458.65 628.531 1469.68 601.795C1471.92 596.364 1471.17 594.375 1465.04 594.777C1457.73 595.236 1450.41 595.197 1443.11 595.369C1413.88 595.943 1384.64 596.517 1355.41 597.11C1354.07 597.148 1352.71 597.186 1351.38 597.224C1347.27 597.263 1343.06 595.981 1339.12 598.219C1321.76 595.675 1304.32 596.804 1286.96 597.932C1273.05 598.831 1263.08 599.347 1253.09 583.627C1225.57 540.292 1197.01 497.569 1168.91 454.559C1165.79 449.797 1162.23 445.341 1158.89 440.732C1182.73 442.262 1206.7 442.377 1230.14 447.789C1232.05 448.228 1233.91 448.114 1235.15 446.201C1237.92 446.125 1240.7 446.048 1243.47 445.972C1244.06 445.953 1244.65 445.914 1245.23 445.972C1244.65 445.934 1244.06 445.972 1243.47 445.972C1244.42 448.114 1245.53 449.835 1248.15 447.922L1248.13 447.961ZM1206.88 1178.98C1226.87 1178.1 1246.59 1177.24 1267.6 1176.32C1258.73 1196.44 1250.28 1215.64 1241.12 1236.43C1228.31 1216.9 1217.64 1198.58 1206.88 1178.98ZM1227.75 1259.8C1216.19 1285.27 1204.68 1310.76 1193.13 1336.26C1193.07 1336.39 1192.99 1336.49 1192.94 1336.62H1126.54C1126.25 1335.47 1126.79 1333.81 1127.91 1331.51C1137.4 1312.08 1146.57 1292.5 1155.81 1272.98C1157.43 1269.53 1160.01 1266.03 1160.17 1262.48C1160.66 1251.58 1167.45 1250.56 1175.88 1250.96C1191.77 1251.73 1207.66 1252.59 1223.55 1252.88C1229.66 1252.99 1229.8 1255.3 1227.75 1259.82V1259.8ZM1482.15 938.035C1481.71 936.658 1481.44 935.186 1481.38 933.618C1436.86 934 1392.31 933.063 1347.78 934.803C1333.88 935.339 1319.93 934.88 1305.7 934.88C1321.01 906.806 1336.18 879.018 1351.32 851.212C1361.28 836.123 1369.6 820.097 1377.97 804.109C1383.25 794.031 1383.27 793.897 1389.65 802.637C1420.34 844.691 1450.95 886.802 1481.61 928.856C1482.89 930.615 1483.54 932.126 1481.36 933.599C1481.44 935.167 1481.71 936.639 1482.13 938.016L1482.15 938.035ZM1321.68 1077.7C1328.74 1069.67 1331.84 1059.57 1336.06 1050.06C1337.97 1048.02 1338.78 1048.82 1340.04 1051.02C1356.23 1079.04 1372.46 1107.04 1388.93 1134.9C1391.51 1139.28 1390.38 1142.4 1388.03 1146.16C1376.27 1164.92 1364.68 1183.78 1353.04 1202.6C1348.35 1206.86 1345.77 1212.43 1343.36 1218.11C1338.51 1224.99 1333.65 1231.86 1328.24 1239.57C1316.5 1216.1 1304.92 1193.46 1293.64 1170.62C1288.17 1159.55 1287.88 1150.83 1293.64 1140.04C1302.57 1123.27 1309.93 1105.66 1317.98 1088.41C1319.58 1084.97 1321.61 1081.68 1321.68 1077.7ZM1326.87 1017.59C1329.16 1021.38 1328.93 1023.33 1323.9 1023.44C1308.05 1023.85 1292.2 1024.3 1276.37 1025.01C1270.66 1025.26 1270.69 1023.27 1272.87 1019.01C1281.06 1002.94 1289.05 986.783 1297.84 969.227C1308.03 986.228 1317.4 1001.93 1326.87 1017.57V1017.59ZM1273.03 1136.75C1278.27 1146.88 1276 1155.28 1266.24 1161.96C1253.83 1146.22 1246.07 1127.65 1235.02 1111.09C1233.16 1108.32 1233.83 1105.75 1235.31 1103.08C1238.21 1097.84 1241 1092.54 1244.33 1086.4C1254.69 1098.81 1259.62 1113.67 1267.75 1126.6C1269.78 1129.81 1271.27 1133.37 1273.03 1136.75ZM1249.66 1045C1247.31 1049.99 1245.46 1055.21 1242.61 1062.17C1237.33 1052.97 1237.12 1044.52 1234.1 1037C1232.92 1034.08 1233.97 1032.91 1236.91 1033.04C1238.8 1033.12 1240.68 1033.2 1242.57 1033.29C1254.77 1033.94 1254.77 1034.1 1249.64 1044.98L1249.66 1045ZM1331.05 1249.74C1317.21 1274.08 1301.8 1296.12 1286.26 1320.5C1272.22 1296.52 1258.84 1273.64 1244.86 1249.74H1331.05ZM1358.81 1356.17C1395.69 1355.59 1432.59 1354.79 1469.47 1354.18C1471.88 1354.14 1475.19 1353.01 1476.6 1355.19C1478.54 1358.17 1475.17 1360.45 1473.68 1362.59C1445.31 1403.36 1416.84 1444.04 1388.24 1484.66C1386.54 1487.07 1384.68 1493.3 1380.61 1485.96C1358.11 1445.42 1335.47 1404.93 1312.91 1364.41C1312.01 1362.78 1311.32 1361.04 1309.05 1356.18C1327.02 1356.18 1342.91 1356.39 1358.77 1356.15L1358.81 1356.17ZM1424.95 1168.62C1423.72 1166.38 1423 1163.74 1421.37 1161.88C1406.57 1145.15 1410.36 1130 1421.31 1111.93C1451.08 1062.78 1478.8 1012.37 1507.65 961.941C1513.89 966.091 1515.19 973.989 1521.09 977.756C1539.77 1005.96 1558.41 1034.21 1577.13 1062.4C1586.06 1075.84 1595.12 1089.21 1604.2 1102.58C1606.31 1105.68 1607.8 1109.41 1611.68 1110.94C1616.84 1123.06 1625.43 1133.02 1632.63 1143.83C1636.65 1149.84 1636.71 1154.29 1632.17 1159.76C1610.51 1185.9 1589.04 1212.2 1567.5 1238.42C1548.74 1261.23 1529.7 1283.8 1511.36 1306.94C1505.86 1313.88 1503.41 1313.17 1499.55 1306C1474.81 1260.14 1449.86 1214.4 1424.98 1168.6L1424.95 1168.62ZM1158.87 440.751C1158.47 437.997 1160.03 436.945 1162 436.831C1160.03 436.926 1158.47 437.997 1158.89 440.751H1158.87ZM1237.54 614.226C1245.4 613.729 1250.73 615.641 1255.67 622.66C1290.73 672.497 1326.35 721.933 1361.78 771.522C1362.08 771.962 1361.99 772.688 1362.12 773.453C1359.75 775.672 1356.75 774.601 1354.09 774.62C1321.32 774.849 1288.55 774.849 1255.78 775.155C1242.44 775.289 1229.11 775.882 1215.78 776.532C1210.74 776.781 1207.95 775.098 1205.42 770.412C1179.69 722.64 1153.63 675.021 1127.65 627.383C1126.16 624.648 1125.7 621.206 1122.31 619.791C1122.18 619.294 1122.16 618.816 1122.29 618.318C1160.74 617.898 1199.17 616.616 1237.56 614.188L1237.54 614.226ZM1169.86 948.879C1174.76 948.382 1178.06 949.28 1180.62 954.157C1191.37 974.677 1202.44 995.025 1213.61 1015.32C1216.99 1021.47 1215.96 1023.98 1208.65 1023.33C1204.87 1022.98 1201.02 1023.25 1197.22 1023.27C1180.01 1023.37 1166.29 1016.28 1156.04 1001.99C1144.57 986.056 1132.96 970.221 1120.84 953.564C1137.88 951.958 1153.88 950.543 1169.86 948.879ZM1168.45 1034.73C1172 1034.48 1173.34 1036.75 1175.02 1039.18C1188.81 1059 1202.59 1078.81 1216.61 1098.47C1220.05 1103.29 1218.12 1107.48 1216.36 1111.89C1210.05 1127.82 1203.68 1143.75 1196.51 1161.73C1172.33 1119.85 1148.93 1079.34 1124.76 1037.5C1140.32 1036.52 1154.37 1035.72 1168.43 1034.75L1168.45 1034.73ZM1127.9 1487.43C1149.04 1444.31 1170.34 1401.26 1191.31 1358.04C1194.03 1352.46 1197.22 1350.2 1203.59 1350.2C1223.62 1350.16 1243.68 1349.34 1263.72 1348.92C1266.43 1348.86 1269.32 1348 1272.61 1350.24C1252.99 1385.48 1233.6 1420.77 1213.72 1455.78C1207.22 1467.26 1202.73 1479.78 1194.77 1490.55C1192.13 1494.13 1189.86 1495.6 1185.63 1495.56C1166 1495.43 1146.34 1495.5 1126.71 1495.5C1125.75 1490.7 1127.09 1489.08 1127.9 1487.43ZM1158.5 1573.49C1170.66 1553.35 1182.98 1533.29 1195.08 1513.1C1197.37 1509.25 1199.82 1507.19 1204.75 1507.09C1255.69 1506.02 1306.62 1504.64 1357.55 1503.34C1360.06 1503.29 1362.56 1503.34 1366 1503.34C1363 1512.93 1357.11 1518.97 1352.71 1525.89C1334.34 1554.86 1315.66 1583.63 1297.23 1612.56C1295.01 1616.04 1292.83 1618.18 1288.28 1618.22C1237.33 1618.49 1186.36 1618.97 1135.41 1619.35C1134.53 1619.35 1133.65 1619.06 1131.39 1618.66C1140.65 1603.23 1149.52 1588.33 1158.49 1573.49H1158.5ZM1176.04 1803.36C1206.47 1762.63 1234.87 1720.46 1263.7 1678.6C1272.53 1665.78 1281.52 1653.09 1290.29 1640.23C1293.16 1636.03 1296.98 1635.22 1301.76 1635.17C1332.95 1634.78 1364.15 1634.13 1395.33 1633.58C1397.28 1635.24 1399.23 1635.17 1401.18 1633.54C1419.34 1633.5 1437.51 1633.24 1455.65 1633.54C1462.69 1633.66 1463.16 1631.32 1460.22 1625.89C1444.79 1597.34 1429.48 1568.73 1414.09 1540.16C1408.83 1530.39 1403.49 1520.65 1398.16 1510.84C1400.24 1507.78 1403.4 1509.14 1406.02 1509.1C1470.35 1508.43 1534.69 1507.86 1599.02 1507.28C1611.55 1507.17 1611.32 1507.28 1605.7 1496.59C1581.89 1451.27 1558.24 1405.87 1534.53 1360.51C1529.98 1351.8 1537.38 1354.31 1540.81 1354.29C1583.17 1353.97 1625.54 1353.99 1667.93 1353.62C1697.5 1353.37 1727.08 1352.68 1756.68 1352.19C1760.54 1352.15 1764.4 1352.11 1768.26 1352.07C1785.55 1352.84 1785.47 1352.8 1778.26 1371.27C1754.92 1430.98 1725.09 1487.34 1689.28 1540.45C1644.09 1607.46 1587.78 1663.07 1519.45 1706.69C1468.57 1739.18 1415.75 1767.7 1359.41 1789.25C1297.29 1813 1232.99 1827.5 1166.5 1831.67C1163.65 1831.84 1160.78 1831.69 1156.8 1831.69C1163.48 1821.82 1169.38 1812.31 1176.06 1803.38L1176.04 1803.36ZM1756.79 594.93C1755.51 593.419 1753.9 591.984 1753.33 590.282C1753.92 591.965 1755.53 593.4 1756.79 594.93ZM1703.14 510.42C1688.14 512.562 1675.15 504.931 1661.25 501.738C1623.34 483.971 1590.11 458.823 1555.64 435.53C1532.66 420.001 1506.43 412.199 1478.86 409.56C1457.66 407.513 1438.9 415.756 1420.93 425.528C1414.2 429.181 1411.79 427.402 1411.24 421.034C1409.1 396.44 1392.71 381.294 1376.36 365.383C1349.71 339.431 1315.22 334.765 1281.42 327.536C1251.65 321.168 1221.62 315.717 1192.38 307.398C1178.46 303.44 1165.23 295.35 1153.78 285.597C1151.53 283.665 1148.05 281.351 1149.38 277.813C1150.78 274.123 1154.81 273.97 1158.37 273.836C1178.46 273.147 1198.39 275.805 1218.21 278.024C1255.11 282.155 1291.69 288.963 1327.57 298.487C1402.16 318.261 1474.08 344.977 1540.58 384.698C1580.94 408.814 1619.69 435.262 1655.81 465.574C1670.64 478.024 1685.48 490.34 1698.86 504.32C1700.54 506.079 1702.9 507.571 1703.11 510.439L1703.14 510.42ZM1213.38 353.736C1246.3 362.744 1280.27 367.907 1313.71 375.079C1331.3 378.846 1347.53 386.113 1362.04 396.804C1369.12 402.005 1374.03 408.909 1376.04 417.668C1376.92 421.531 1375.43 424.362 1372.71 426.962C1369.46 430.061 1367.95 426.523 1365.54 425.605C1351.3 420.154 1336.44 416.674 1321.59 413.423C1300.58 408.833 1279.18 405.429 1258.29 400.954C1223.74 393.553 1188.96 390.244 1154.09 387.414C1123.67 384.947 1093.04 385.846 1062.6 388.886C1007.24 394.413 952.766 404.798 899.138 419.542C884.473 423.578 869.656 427.268 855.776 433.752C849.945 435.243 846.809 432.7 845.719 427.058C854.247 401.451 873.499 387.968 898.239 380.912C937.605 369.686 977.219 359.493 1017.14 350.351C1031 347.177 1044.67 342.797 1058.03 337.901C1077.65 330.692 1092.45 316.903 1105.39 300.858C1107.38 298.391 1108.76 292.424 1114.11 298.716C1140.25 329.449 1176.21 343.581 1213.39 353.755L1213.38 353.736ZM1065.87 289.116C1057.27 296.173 1047.23 300.705 1036.76 304.396C996.835 318.49 954.965 324.553 914.07 334.593C885.276 341.669 859.16 355.4 837.192 375.002C822.987 387.682 815.244 405.716 810.311 424.381C810.598 424.954 810.866 425.528 811.095 426.102C810.847 425.528 810.598 424.935 810.311 424.381C807.654 432.03 803.601 432.987 796.641 428.588C791.135 425.107 784.749 422.679 778.039 421.875C763.738 416.482 748.997 417.63 734.084 417.917C701.353 418.548 676.211 435.932 650.497 452.99C622.048 471.866 595.855 494.05 565.685 510.344C552.34 514.991 538.995 519.638 525.65 524.285C523.681 524.381 521.693 524.476 519.723 524.572C517.907 524.189 516.072 523.826 514.255 523.444C514.466 523.042 514.427 522.66 514.141 522.315C514.102 520.422 514.064 518.529 514.007 516.616C517.2 516.502 519.15 514.302 521.119 512.237C547.197 484.679 577.118 461.539 607.326 438.953C641.893 413.136 678.697 390.761 717.26 371.139C757.811 350.504 799.146 331.82 842.24 317.4C876.807 305.83 912.464 297.989 948.254 290.971C982.171 284.316 1016.51 280.606 1050.75 276.264C1054.21 275.825 1057.75 275.595 1061.23 275.786C1065.13 275.978 1070.44 274.161 1072.09 279.229C1073.62 283.933 1068.91 286.611 1065.91 289.078L1065.87 289.116ZM262.383 1205.89C268.214 1210.27 272.765 1214.82 276.283 1220.61C294.79 1251.21 305.439 1284.68 313.259 1319.29C320.524 1351.44 332.339 1382 347.94 1410.99C360.081 1433.56 380.404 1445.76 404.054 1453.55C409.101 1455.21 413.843 1457.75 419.139 1458.86C425.41 1460.18 421.185 1463.76 420.057 1465.9C411.033 1482.92 408.509 1501.36 407.113 1520.23C405.909 1536.33 411.644 1550.2 419.158 1563.68C441.221 1603.31 469.402 1638.69 496.265 1675C508.195 1691.12 513.682 1709.29 512.152 1729.93C362.853 1587.07 281.368 1411.87 262.402 1205.89H262.383ZM588.532 1774.56C617.383 1782.65 642.447 1798.51 668.143 1813.14C691.048 1826.18 712.384 1842.3 737.564 1850.96C759.034 1858.35 781.442 1861.92 804.174 1860.76C816.812 1860.1 828.264 1854.41 837.537 1845.84C842.374 1841.36 844.572 1841.33 846.503 1847.43C859.676 1888.85 893.249 1906.81 930.588 1920.06C961.962 1931.19 995.459 1931.19 1027.77 1937.4C1048.11 1941.33 1069.3 1942.03 1087.32 1954.56C1092.96 1958.48 1096.37 1964.18 1101.28 1969.04C898.813 1970.47 720.797 1903.92 562.989 1777.35C571.861 1771.79 580.063 1772.17 588.513 1774.54L588.532 1774.56ZM1053.45 1909.69C1017.9 1900.67 981.196 1899.31 945.692 1890.89C934.986 1888.35 924.355 1885.39 914.395 1880.05C899.099 1871.85 888.661 1860.97 881.491 1841.75C1048.15 1881.98 1212.08 1881.14 1376.19 1827.52C1372.75 1845.32 1364.22 1855.65 1352.5 1863.76C1333.82 1876.69 1311.91 1879.55 1290.37 1883.67C1265.46 1888.43 1240.54 1893.23 1215.73 1898.54C1183.03 1905.54 1158.71 1925.78 1137.68 1950.33C1132.52 1956.36 1130.17 1957.03 1125.47 1950.28C1108.03 1925.26 1081.55 1916.83 1053.47 1909.69H1053.45ZM1185 1949.91C1213.95 1934.21 1245.44 1927.17 1277.62 1922.14C1305.03 1917.86 1331.74 1910.73 1356.77 1898.41C1382.56 1885.71 1399.88 1865.4 1408.48 1838.09C1410.87 1830.54 1412.96 1829.72 1420.09 1833.1C1443.59 1844.21 1467.96 1846.2 1493.52 1839.99C1520.35 1833.48 1543.81 1820.94 1566.35 1805.52C1590.71 1788.87 1614.15 1770.74 1640.11 1756.47C1652.61 1749.59 1665.88 1745.91 1682.46 1748.53C1611.37 1815.05 1532.74 1867.2 1444.77 1905.01C1356.71 1942.87 1265.11 1965.13 1166.9 1966.11C1172.08 1957.43 1178.37 1953.51 1185 1949.91ZM1730.56 1691.64C1733.39 1667.01 1744.42 1646.09 1758.68 1626.12C1776.73 1600.86 1797.11 1577.01 1811.89 1549.66C1828.66 1518.62 1839.29 1485.79 1825.47 1450.18C1823.75 1445.76 1821.93 1441.02 1818.85 1437.6C1813.31 1431.44 1816.48 1430.06 1822.2 1427.59C1847.15 1416.85 1871.28 1404.84 1887.3 1381.37C1890.22 1377.07 1892.02 1372.4 1893.78 1367.64C1901.6 1352.23 1905.38 1335.47 1909.61 1318.91C1918.46 1284.2 1924.56 1248.8 1936.07 1214.76C1939.97 1203.23 1945.5 1192.54 1954.52 1184.03C1956.35 1182.29 1958.71 1180.22 1961.15 1181.03C1964.35 1182.08 1962.78 1185.41 1962.7 1187.7C1962.22 1200.38 1961.54 1213.06 1960.92 1225.74C1961.4 1226.43 1961.88 1227.12 1962.26 1227.79C1961.88 1227.12 1961.42 1226.43 1960.92 1225.74C1958.97 1228.78 1959.53 1232.16 1959.59 1235.49C1959.43 1236.77 1959.28 1238.05 1959.15 1239.34C1957.87 1248.96 1956.6 1258.57 1955.32 1268.18C1955.15 1269.76 1954.96 1271.35 1954.77 1272.94C1952.89 1277.51 1951.46 1282.17 1951.8 1287.22C1953.87 1287.11 1955.78 1287.53 1956.74 1288.6C1955.78 1287.53 1953.85 1287.11 1951.8 1287.22C1950.08 1288.14 1949.89 1289.58 1950.41 1291.24C1949.61 1295.62 1948.78 1300.02 1947.98 1304.4C1950.29 1305.28 1952.11 1306.02 1953.47 1306.75C1952.13 1306.02 1950.29 1305.28 1947.98 1304.4C1945.55 1312.58 1942.49 1320.61 1942.09 1329.26L1938.23 1344.56C1935.42 1347.88 1934.5 1351.82 1934.56 1356.07L1931.06 1367.62C1932.9 1369.59 1932.19 1370.45 1930.81 1371.02C1932.21 1370.45 1932.91 1369.59 1931.06 1367.62C1929.28 1368.39 1929.01 1369.8 1929.4 1371.5C1928.02 1376.59 1926.66 1381.68 1925.29 1386.76C1924.9 1387.83 1924.52 1388.92 1924.14 1390C1918.33 1404.42 1912.59 1418.87 1906.68 1433.27C1887.03 1481.28 1863.25 1527.13 1836.02 1571.31C1811.07 1611.76 1782.97 1649.68 1750.56 1684.45C1747.58 1687.64 1745.38 1691.51 1741.78 1694.28C1738.28 1696.98 1735.17 1700.19 1731.34 1703.67C1728.88 1699.48 1730.14 1695.48 1730.58 1691.66L1730.56 1691.64ZM1953.62 1339.95C1953.26 1339.85 1952.8 1339.51 1952.42 1339.36C1952.82 1339.53 1953.26 1339.87 1953.62 1339.97V1339.95ZM2012.87 1298.7C2013.35 1298.66 2013.85 1298.62 2014.32 1298.6C2013.83 1298.62 2013.35 1298.66 2012.87 1298.7ZM2027.9 1317.73C2027.9 1317.08 2027.94 1316.46 2028.11 1315.91C2027.94 1316.48 2027.88 1317.09 2027.9 1317.73ZM1854.01 419.389C1850.23 441.497 1855.75 461.348 1865.12 481.791C1876.69 507.016 1886.7 533.637 1884.54 562.457C1883.32 578.827 1876.38 593.629 1868.89 608.01C1867.45 610.764 1865.06 613.04 1864.39 616.253C1866.59 619.083 1866.46 624.859 1864.93 629.449C1866.46 624.84 1866.59 619.083 1864.39 616.253C1859.5 622.22 1857.85 613.939 1854.32 613.939C1853.69 612.696 1853.07 611.472 1852.44 610.229C1829.81 574.83 1804.7 541.459 1774.4 512.065C1762.64 500.648 1750.69 488.791 1740.62 476.303C1720.35 451.154 1691.98 436.295 1669.65 414.149C1669.42 413.939 1669.09 413.824 1668.86 413.614C1657.01 402.12 1652.71 398.123 1671.29 387.031C1691.77 374.811 1714.56 374.065 1737.62 379.152C1757.65 383.57 1775.28 394.069 1794.17 401.413C1810.48 407.743 1826.71 413.614 1844.66 409.617C1853.04 407.743 1855.35 411.453 1853.99 419.37L1854.01 419.389ZM1557.78 158.938C1558.28 159.225 1558.82 159.301 1559.39 159.148C1560.36 160.621 1561.8 160.946 1563.42 160.697C1584.51 172.248 1605.56 183.876 1626.71 195.312C1639.5 202.216 1652.35 208.947 1664.28 217.381C1675.29 225.165 1687.16 231.724 1698.42 239.164C1721.23 254.214 1741.48 272.803 1763.81 288.293C1783.5 301.948 1799.5 319.561 1818.76 333.503C1827.89 340.12 1834.59 349.854 1843.61 356.987C1846.38 359.167 1849.12 360.793 1852.37 361.807C1854.34 373.128 1846.86 373.262 1839.08 373.032C1836.23 372.956 1833.38 372.918 1830.53 372.86C1829.96 372.114 1829.54 370.967 1828.79 370.699C1800.65 360.468 1776.29 341.898 1747.4 333.522C1733.03 329.353 1718 328.798 1703.14 329.946C1691.14 330.883 1679.44 333.522 1669.49 341.344C1664.73 345.092 1658.79 346.106 1653.32 343.122C1647.62 340.005 1649.61 333.904 1650.05 329.2C1652.5 302.56 1644.12 279.764 1630.74 256.739C1621.2 240.33 1607.22 230.5 1594.66 218.031C1584.86 208.316 1574.24 199.137 1565.43 188.389C1562.14 184.392 1558.34 181.275 1554.34 178.196C1555.34 171.751 1550.69 164.293 1557.78 158.957V158.938ZM1521.86 183.302C1528.4 205.849 1540.67 224.782 1558.13 240.235C1572.5 252.971 1585.39 267.257 1595.96 282.977C1606 297.894 1612.42 315.105 1610.07 334.077C1609.06 342.262 1609.92 350.542 1608.18 358.785C1606.78 365.345 1604.68 367.123 1598.74 363.509C1584.89 355.075 1570.96 346.775 1557.02 338.494C1541.49 329.257 1525.64 320.479 1508.92 313.709C1493.62 307.513 1479.93 298.2 1464.2 292.845C1443.99 285.96 1424.58 276.475 1404.14 270.508C1378.73 263.088 1354.57 251.231 1327.8 248.439C1323.83 248.018 1318.49 247.808 1323.29 241.133C1338.89 219.447 1358.07 202.56 1384.2 194.777C1401.03 189.766 1418.31 192.176 1435.42 191.755C1443.07 191.755 1450.74 191.334 1458.35 191.831C1476.34 193.055 1491.94 186.132 1507.08 177.871C1516.7 172.612 1518.86 172.975 1521.86 183.283V183.302ZM1146.15 60.9842C1159.71 61.9213 1173.25 61.9021 1186.8 61.2711C1196.38 65.7078 1206.86 63.8911 1216.84 64.9429C1256.87 69.1693 1296.49 75.3464 1335.91 83.5889C1376.59 92.0991 1416.04 104.645 1455.36 117.496C1468.71 121.856 1481.9 127.288 1495.15 132.222C1502.82 135.071 1500.62 138.877 1496.14 142.338C1486.68 149.624 1475.48 150.064 1464.27 148.993C1436.61 146.354 1408.75 145.934 1381.28 148.209C1362.54 149.758 1344.28 157.064 1330.88 172.746C1325.41 179.133 1317.99 184.048 1310.9 188.81C1304.42 193.151 1294.96 187.987 1290.04 178.005C1285.15 168.041 1282.36 156.892 1275.24 148.152C1257.62 126.503 1234.88 111.548 1208.77 102.637C1189.9 96.1917 1170.47 91.2768 1151.72 84.373C1150.34 84.679 1148.98 84.6981 1147.64 84.5834C1149 84.679 1150.36 84.679 1151.72 84.373C1148.07 80.9498 1144.49 77.4118 1140.7 74.1225C1137.47 71.3112 1134.11 68.2322 1136.02 63.7572C1137.86 59.4734 1142.6 60.7165 1146.12 60.9651L1146.15 60.9842ZM1101.36 97.3391C1104.99 92.1565 1108.15 90.4162 1113.27 95.924C1117.55 100.533 1122.6 104.281 1126.27 109.655C1129.81 114.838 1134.64 119.026 1140.63 121.665C1160.26 130.347 1179.31 140.177 1199.59 147.674C1226.78 157.733 1246.41 177.775 1258.13 204.396C1261.57 212.218 1262.24 221.378 1264.81 226.848C1266.24 234.765 1263.12 236.065 1259.15 235.109C1230.95 228.32 1201.9 230.443 1173.32 227.192C1146.59 224.151 1119.27 226.962 1092.24 225.968C1052.76 224.515 1014.23 231.896 975.46 237.079C968.558 237.997 961.542 236.486 954.678 238.8C951.332 239.929 950.854 237.691 951.447 234.287C955.366 212.218 964.715 192.749 978.672 175.385C987.486 164.427 999.971 158.498 1011.77 151.671C1030.2 140.98 1051.46 136.448 1069.58 125.107C1081.65 117.553 1093.04 109.158 1101.34 97.32L1101.36 97.3391ZM709.746 142.07C710.205 138.991 712.729 138.418 715.176 137.519C740.432 128.244 764.885 116.903 790.944 109.732C817.194 102.503 842.813 93.0362 869.503 87.3181C909.424 78.7696 949.535 71.0052 990.029 65.9182C1015.76 62.6862 1041.78 61.6727 1067.69 59.8176C1071.36 59.5499 1076.16 58.8805 1077.63 63.3556C1079.01 67.5438 1076.22 71.1391 1073.31 74.2946C1064.06 84.3156 1053.04 91.0282 1039.7 94.5853C1012.21 101.91 986.358 113.824 962.957 129.563C946.457 140.655 933.246 156.146 928.887 177.125C926.286 189.67 918.964 197.722 911.297 197.779C907.607 197.951 903.611 197.339 902.12 193.916C897.742 183.914 887.685 180.127 880.248 173.702C861.818 157.79 839.697 151.307 815.263 151.613C793.009 151.881 770.812 152.091 748.691 155.075C736.417 156.72 724.62 155.017 714.277 147.406C712.327 145.972 709.23 145.532 709.746 142.09V142.07ZM689.729 194.107C694.03 182.862 699.326 179.668 710.014 185.788C729.152 196.746 749.704 197.875 770.793 197.186C773.278 197.11 775.955 197.55 777.943 195.408C791.957 195.408 805.971 195.427 819.985 195.446C838.875 200.055 856.292 207.418 871.645 219.886C880.936 227.441 887.647 237.003 894.874 246.106C899.405 251.805 894.205 255.457 888.584 256.433C880.172 257.886 871.683 259.359 863.194 259.646C853.424 259.99 846.293 265.976 837.919 269.361C814.212 278.942 789.701 286.611 766.376 296.976C749.399 304.53 729.916 307.934 715.788 320.097C705.291 329.143 691.793 329.602 681.469 337.232C666.901 347.999 648.451 351.805 634.819 364.809C628.758 370.585 616.828 368.596 610.232 379.879C604.401 353.621 602.546 330.061 611.303 306.328C618.415 287.031 632.028 272.746 645.984 258.479C656.404 247.827 667.321 237.366 675.848 225.279C682.291 216.157 685.656 204.759 689.709 194.107H689.729ZM391.627 345.57C421.299 318.357 451.928 292.367 484.315 268.29C529.034 235.033 575.952 205.601 625.24 179.688C634.188 174.983 643.576 171.196 652.313 166.071C656.328 163.719 659.272 165.478 658.584 170.279C656.137 186.993 649.005 201.011 634.073 210.076C619.945 218.663 611.743 233.407 599.258 243.581C582.414 257.312 573.581 276.417 565.685 295.369C560.313 308.259 560.848 323.424 562.798 337.748C563.659 344.059 563.964 350.294 558.592 354.386C552.971 358.689 548.191 353.889 542.915 351.766C512.229 339.489 481.734 337.997 450.819 352.493C441.508 356.853 431.681 360.525 422.083 364.522C409.503 369.762 399.446 379.037 386.981 384.45C380.347 387.318 373.808 388.523 366.868 388.905C361.304 388.102 354.689 388.886 354.249 380.453C366.696 368.825 379.066 357.083 391.627 345.57ZM337.865 519.848C348.284 494.834 358.723 469.839 355.454 441.745C355.052 438.284 354.67 434.822 354.23 431.38C353.561 426.178 355.76 423.501 358.36 423.501C388.147 427.498 412.122 418.567 435.868 406.787C453.878 397.856 472.27 388.6 492.804 387.165C508.749 386.056 524.656 387.777 539.378 395.063C544.788 397.741 550.084 400.724 555.59 403.229C565.494 407.724 566.029 411.453 557.005 418.337C545.209 427.345 534.445 437.768 521.578 445.303C517.219 447.846 514.733 451.862 511.56 455.324C491.905 476.8 469.88 495.828 449.098 516.1C440.074 524.897 430.075 533.943 424.072 545.8C420.707 552.417 415.277 557.446 410.268 562.763C393.328 580.739 380.92 602.063 366.505 621.914C363.599 625.911 359.067 628.684 356.142 632.929C354.135 635.836 352.242 634.861 350.292 632.145C324.902 597.033 321.346 559.531 337.884 519.829L337.865 519.848ZM321.327 694.432C286.167 763.872 258.196 836.066 238.293 911.357C233.495 929.468 228.275 947.464 223.266 965.536C221.966 970.221 220.532 973.606 215.293 968.577C210.724 964.197 205.677 960.296 200.839 956.203C200.534 956.815 200.017 957.408 199.482 957.733C200.017 957.389 200.534 956.796 200.839 956.203C194.282 950.064 189.368 942.281 181.74 937.213C180.019 931.686 176.692 927.288 172.333 923.578C162.736 900.284 160.805 875.519 161.149 850.982C161.493 826.542 155.279 804.492 144.42 783.302C141.361 777.335 141.609 774.658 148.588 773.147C165.718 769.418 178.489 758.23 190.745 746.794C205.638 732.91 219.27 717.649 234.374 703.994C255.653 684.775 281.101 676.59 309.817 679.114C311.691 679.286 313.603 679.669 315.381 680.261C326.164 683.818 326.431 684.297 321.288 694.432H321.327ZM128.341 733.56C128.704 732.03 128.876 730.481 129.144 728.932C134.86 721.149 138.015 712.007 141.437 703.249C153.1 673.358 165.852 644.002 182.351 616.502C197.436 591.353 210.055 564.733 227.816 541.114C237.682 527.995 245.559 513.403 255.022 499.94C270.088 478.483 285.345 457.121 304.292 438.724C308.116 435.014 311.117 430.481 314.865 425.892C318.994 430.768 319.147 436.735 319.147 442.51C319.147 455.725 313.736 466.951 308.498 479.037C298.002 503.268 281.865 525.528 283.701 554.845C284.733 571.541 284.752 588.121 288.423 604.587C290.086 612.007 294.866 617.515 297.81 624.094C302.38 634.287 299.531 640.024 288.347 640.808C280.125 641.401 271.79 642.491 263.741 642.396C244.163 642.128 229.04 651.307 214.739 662.61C191.892 680.663 173.06 702.522 157.745 727.192C153.883 733.426 146.159 733.771 142.871 739.871C143.387 740.655 145.395 741.478 145.911 742.281C145.414 741.478 143.406 740.655 142.89 739.871C140.405 740.177 137.804 740.139 135.415 740.828C128.264 742.912 126.964 739.661 128.379 733.579L128.341 733.56ZM57.3522 1242.4C57.7537 1242.36 58.0405 1242.43 58.2699 1242.63C58.0405 1242.45 57.7346 1242.36 57.3522 1242.4ZM52.3048 1238.28C55.7653 1236.72 57.6772 1235.01 58.4802 1232.93C57.6964 1235.01 55.7845 1236.72 52.3048 1238.28ZM57.4478 1142.61C56.989 1126.81 56.683 1110.99 56.3198 1095.2C56.4919 1088.35 56.6831 1081.5 56.8742 1074.66C57.4669 1059.49 58.0787 1044.33 58.6714 1029.16C63.0688 974.161 72.5135 920.001 85.9349 866.511C83.8319 866.301 82.2832 865.784 83.0098 863.011C88.7645 841.191 97.2916 820.154 100.982 797.741C101.593 794.069 104.174 796.593 105.647 798.2C108.266 796.307 106.239 790.493 109.872 790.818C114.059 791.2 114.537 795.905 114.728 799.73C114.804 801.355 115.091 802.809 116.908 803.382C118.169 803.803 120.311 804.09 120.884 804.606C120.311 804.09 118.15 803.803 116.888 803.382C122.318 824.037 122.49 845.188 122.586 866.339C122.854 888.37 126.199 909.98 132.184 931.132C136.81 947.444 148.588 958.613 160.938 969.399C177.036 983.455 175.258 991.851 156.139 1001.62C129.775 1015.11 110.044 1035.01 99.6432 1063.36C96.1444 1072.88 91.3456 1081.94 89.7205 1092.1C89.7205 1092.1 89.7205 1092.1 89.7396 1092.1C89.7396 1092.1 89.7396 1092.1 89.7205 1092.1C86.6232 1102.68 83.6216 1113.27 80.3905 1123.79C77.6182 1132.76 72.6664 1140.41 65.1718 1146.18C63.2791 1147.65 61.1569 1150.08 58.5376 1148.67C56.3389 1147.48 57.5243 1144.63 57.4478 1142.57V1142.61ZM59.2067 1247.43C59.1303 1246.62 59.1111 1245.74 59.0538 1244.96C59.1111 1245.76 59.1303 1246.62 59.2067 1247.43ZM161.302 1487.97C164.533 1504.24 166.731 1520.63 161.015 1536.95C159.447 1541.42 157.707 1545.7 154.266 1549.93C124.918 1479.19 95.8003 1409.18 79.5875 1334.67C77.6565 1325.76 72.8385 1317.63 72.4752 1308.3C72.4561 1304.51 73.0106 1300.59 72.3032 1296.94C66.6822 1267.58 64.7512 1237.79 61.6157 1208.13C61.3863 1206 60.9848 1203.34 64.6174 1203.63C82.5891 1216.69 92.2059 1235.11 99.3946 1255.61C105.914 1274.22 115.531 1291.53 125.071 1308.78C136.619 1329.62 157.172 1338.7 177.036 1348.69C179.312 1349.84 181.816 1350.47 184.091 1351.59C194.779 1356.89 196.27 1362.9 188.03 1371.58C173.729 1386.67 161.359 1403.27 159.351 1424.23C157.325 1445.36 157.076 1466.8 161.282 1487.97H161.302ZM389.505 1868.86C362.471 1845.26 339.681 1820.42 316.585 1795.87C261.752 1737.52 218.046 1671.45 180.42 1601.05C176.042 1592.86 179.407 1592.73 185.678 1593.06C203 1593.94 213.821 1604.89 223.534 1617.53C232.653 1629.39 242.06 1641.08 253.321 1650.96C278.252 1672.86 308.785 1679.08 340.675 1681.06C343.199 1681.22 345.78 1680.8 348.303 1680.93C357.958 1681.45 360.788 1685.6 357.232 1694.76C352.013 1708.2 348.246 1721.86 347.577 1736.39C346.812 1752.53 351.439 1767.09 359.029 1780.99C367.422 1796.33 375.624 1811.78 384.056 1827.08C391.015 1839.72 390.059 1853.26 389.524 1868.86H389.505ZM422.599 1863.6C422.599 1854.39 422.466 1845.13 421.796 1835.95C420.688 1820.5 412.658 1807.74 404.914 1794.95C396.483 1780.99 389.83 1766.26 386.216 1750.31C380.786 1726.39 388.166 1705.2 400.249 1684.97C403.825 1678.98 406.54 1678.75 411.185 1684.18C436.843 1714.13 464.279 1742.43 493.358 1769.04C516.53 1790.24 540.735 1810.23 565.8 1829.32C584.23 1843.35 602.929 1856.97 621.512 1870.8C623.979 1872.63 626.789 1873.82 622.029 1876.63C605.433 1886.4 588.188 1894.11 569.432 1895.45C545.075 1893.02 522.037 1888.58 499.954 1880.07C477.031 1871.24 453.476 1867.01 428.947 1870.03C423.402 1870.72 422.599 1868.31 422.599 1863.64V1863.6ZM718.98 2077.39C674.548 2060.62 631.645 2040.58 590.024 2017.76C539.626 1990.11 493.76 1955.88 449.003 1920.08C442.311 1914.72 435.983 1908.91 428.89 1902.77C442.12 1896.63 454.738 1898.98 467.357 1902.87C487.47 1909.04 506.933 1917.08 525.956 1925.91C547.369 1935.86 568.419 1935.17 589.871 1927.08C591.955 1926.29 593.943 1925.28 596.027 1924.46C618.3 1915.78 626.043 1919.03 627.86 1942.64C630.422 1975.84 648.126 1998.62 672.674 2018.03C684.911 2027.71 698.906 2035.03 710.128 2045.97C717.374 2053.05 724.85 2060.24 726.322 2071.04C727.068 2076.48 726.953 2080.38 718.961 2077.37L718.98 2077.39ZM762.82 2061.2C758.576 2063.85 756.109 2064.43 754.522 2058.96C746.626 2031.69 724.831 2015.24 705.693 1996.84C696.038 1987.57 686.306 1978.37 677.817 1968.1C665.849 1953.66 663.344 1935.97 663.039 1923.1C663.115 1892.92 663.497 1892.86 685.293 1903.98C720.357 1921.88 756.052 1938.28 793.028 1952.03C835.739 1967.93 879.197 1981.22 923.132 1993.06C938.542 1997.21 938.217 1996.61 928.868 2008.99C907.072 2037.81 876.692 2046.89 842.488 2047.92C828.512 2048.34 814.517 2048.52 800.522 2049.32C786.699 2050.12 774.272 2053.99 762.801 2061.2H762.82ZM1107.06 2146.05C1106.21 2149.24 1097.92 2147.1 1092.98 2147.43C1089.18 2147.67 1085.34 2147.48 1081.51 2147.48C991.023 2146.39 902.216 2134.23 815.55 2107.61C803.199 2103.82 790.867 2099.98 778.459 2096.35C772.284 2094.53 772.953 2092.2 777.427 2089.02C783.048 2085 789.3 2083.42 796.144 2082.77C819.01 2080.63 841.934 2080.68 864.858 2080.84C879.904 2080.93 894.587 2078.83 909.022 2074.81C917.167 2072.54 924.088 2068.06 929.651 2061.63C933.38 2057.29 936.783 2052.67 940.74 2048.53C949.114 2039.81 955.863 2040.22 962.364 2050.26C971.063 2063.64 980.966 2075.86 992.17 2087.3C1012.13 2107.67 1037.67 2114.19 1064.21 2119.03C1070.14 2120.1 1075.99 2121.57 1081.93 2122.53C1088.19 2123.52 1093.31 2126.77 1097.92 2130.65C1102.73 2134.73 1108.7 2139.89 1107.06 2146.07V2146.05ZM1144.34 2114.44C1134.59 2125.68 1133.59 2125.64 1123.92 2113.82C1107.84 2094.16 1085.57 2087.72 1062.18 2083.13C1020.71 2074.98 998.632 2047.6 987.926 2008.62C986.377 2003.02 988.174 2002.66 992.725 2003.04C1049.22 2007.84 1105.83 2009.6 1162.5 2007.51C1197.12 2006.25 1231.65 2002.96 1265.97 1998.26C1275.65 1996.94 1276.05 2000.61 1275.42 2004.64C1274.21 2028.09 1263.91 2043.05 1247.12 2053.72C1234.5 2061.75 1221.16 2069.02 1206.8 2073.01C1181.26 2080.13 1161.37 2094.74 1144.32 2114.44H1144.34ZM1313.12 2125.64C1269.24 2134.77 1224.79 2139.97 1180.19 2143.87C1178.6 2144 1177.01 2144.16 1175.44 2144.4C1171.12 2145.11 1165.58 2147.69 1163.04 2143.29C1160.01 2138.07 1165.14 2133.6 1168.43 2130.19C1176.28 2122.09 1187.24 2120.14 1197.64 2117.25C1226.59 2109.22 1254.27 2098.62 1277.31 2078.39C1286.41 2070.39 1291.82 2059.99 1296.83 2049.3C1298.17 2046.43 1299.07 2043.37 1300.39 2040.48C1304.97 2030.44 1308.82 2029.18 1316.29 2036.91C1338.93 2060.35 1366.42 2069.28 1398.58 2068C1418.01 2067.22 1437.32 2065.86 1456.66 2064.35C1467.41 2063.51 1478.23 2063.93 1487.29 2073.53C1430.09 2096.61 1372.23 2113.31 1313.1 2125.61L1313.12 2125.64ZM1506.93 2035.86C1505.68 2040.5 1503.98 2043.75 1498.46 2040.43C1478.96 2028.66 1457.12 2029.3 1430.99 2028.47C1417.24 2027.17 1398.94 2032.47 1380.57 2027.54C1361.11 2022.32 1345.2 2012.03 1332.28 1996.9C1325.78 1989.29 1327.34 1986.38 1337.06 1983.63C1356.6 1978.12 1375.6 1970.95 1395.18 1965.44C1428.44 1956.09 1460.35 1942.32 1491.5 1927.8C1522.03 1913.58 1552.47 1898.45 1580.63 1879.48C1588.68 1874.05 1589.96 1874.96 1590.36 1884.76C1591.2 1904.84 1592.48 1925.18 1580.52 1942.91C1570.17 1958.21 1558.07 1972.21 1543.9 1984.12C1527.06 1998.28 1512.78 2014 1506.93 2035.86ZM1808.37 1875.06C1797.86 1884.28 1787.34 1893.51 1776.68 1902.56C1743.14 1930.96 1707.68 1956.74 1670.57 1980.26C1629.69 2006.17 1586.92 2028.59 1543.33 2049.49C1541.59 2050.33 1539.43 2052.72 1537.4 2050.64C1535.7 2048.9 1536.73 2046.24 1537.44 2044.25C1540.79 2034.69 1547.04 2027.21 1554.92 2020.98C1566.86 2011.53 1579.54 2002.87 1590.53 1992.41C1612.92 1971.1 1631.87 1947.58 1630.28 1913.88C1630.07 1911.66 1629.8 1909.46 1629.65 1907.23C1628.94 1896.75 1634.18 1892.6 1643.45 1896.94C1675.33 1911.84 1706.62 1907.88 1737.41 1894.03C1754.34 1886.42 1770.81 1877.72 1787.34 1869.25C1792.64 1866.53 1798.32 1866.17 1803.92 1865.21C1806.83 1864.71 1810.11 1864.91 1811.57 1867.79C1813.17 1870.95 1810.52 1873.19 1808.39 1875.06H1808.37ZM1832.48 1770.07C1825.85 1786.15 1819.98 1801.76 1821.11 1819.52C1821.91 1832.24 1821.34 1832.28 1808.51 1832.39C1806.92 1832.39 1805.32 1832.39 1804.36 1832.39C1779.89 1831.23 1759.14 1841.13 1738.74 1851.42C1704.21 1868.83 1670.2 1870.41 1636.13 1850.47C1630.59 1847.22 1632.48 1843.58 1636.21 1842.01C1651.92 1835.4 1663.57 1822.87 1677.83 1814.15C1687.07 1808.49 1695.04 1800.55 1702.84 1792.86C1705 1790.72 1706.99 1788.24 1709.51 1786.44C1729.26 1772.4 1744 1753.14 1761.55 1736.85C1787.46 1712.79 1807.27 1683.88 1828.79 1656.32C1834.62 1648.84 1838.05 1649.3 1842.9 1657.37C1855.29 1678.01 1857.87 1699.65 1852.27 1723.18C1848.24 1740.06 1838.95 1754.41 1832.48 1770.05V1770.07ZM2045.79 1565.25C2021.89 1613.5 1993.06 1658.69 1962.13 1702.68C1939.26 1735.19 1914.41 1766 1887.79 1795.43C1878.52 1805.68 1868.96 1815.66 1859.61 1825.85C1858.71 1826.83 1858.05 1827.88 1856.65 1827.73C1854.26 1827.48 1854.99 1825.51 1854.83 1824.09C1853.76 1815.11 1854.03 1806.48 1858.98 1798.3C1873.63 1774.08 1886.53 1748.94 1894.72 1721.78C1900.51 1702.54 1898.67 1683.47 1888.94 1665.52C1887.89 1663.59 1886.86 1661.6 1886.25 1659.51C1882.35 1646.37 1885.16 1642.72 1898.9 1642.8C1901.14 1642.8 1903.36 1642.8 1905.59 1642.8C1946.16 1643.35 1974.67 1621.72 1999.01 1592.14C2009.28 1579.65 2020.69 1568.18 2032.7 1557.31C2033.4 1556.68 2034.09 1555.82 2034.93 1555.59C2039.37 1554.31 2044.45 1550.33 2048.32 1554.04C2051.78 1557.37 2047.57 1561.71 2045.83 1565.23L2045.79 1565.25ZM2047.26 1518.59C2047.38 1519.24 2047.46 1520 2047.69 1520.58C2047.44 1520 2047.38 1519.26 2047.26 1518.59ZM2050.38 1520.31C2050.61 1519.75 2050.8 1519.08 2051.03 1518.59C2050.8 1519.08 2050.59 1519.75 2050.38 1520.31ZM2057.68 1372.08V1372.04C2057.63 1372 2057.59 1371.96 2057.51 1371.92C2056.37 1371.45 2056.5 1372.1 2056.69 1372.61C2053.63 1372.54 2051.62 1374.07 2051.7 1376C2051.55 1373.8 2053.86 1371.89 2056.79 1371.33C2057.15 1367.24 2056.82 1363.3 2054.47 1360.03C2056.75 1363.18 2057.26 1367.1 2057.65 1372.02C2057.72 1372.08 2057.8 1372.15 2057.86 1372.25C2057.8 1372.17 2057.72 1372.11 2057.65 1372.06L2057.68 1372.08ZM2152.38 1180.36C2150.01 1203.29 2147.51 1226.2 2145.04 1249.11C2144.83 1249.66 2144.79 1250.22 2144.92 1250.79C2144.75 1252.68 2144.58 1254.56 2144.41 1256.45C2138.92 1286.63 2133.3 1316.79 2125.65 1346.49C2119.88 1368.9 2113.45 1391.12 2107.32 1413.42C2102.04 1428.76 2096.76 1444.1 2091.51 1459.44C2091.33 1460.09 2091.16 1460.74 2090.99 1461.39C2090.65 1461.73 2090.47 1462.15 2090.47 1462.65C2086.57 1472.82 2082.94 1483.13 2078.62 1493.11C2076.69 1497.57 2073.84 1503.5 2068.33 1495.6C2065.43 1487.22 2063.44 1478.85 2065.03 1469.76C2068.14 1451.98 2070.65 1434.1 2070.26 1415.95C2070.02 1404.4 2069.19 1393.04 2067.49 1381.49C2065.7 1369.3 2061.32 1360.07 2054.61 1350.18C2048.07 1340.54 2034.42 1334.44 2036.88 1319.52C2040.06 1312.26 2049.87 1315.7 2053.52 1309.18C2053.12 1307.7 2052.62 1306.6 2052.03 1305.81C2052.62 1306.6 2053.13 1307.72 2053.52 1309.2C2055.43 1308.95 2057.59 1309.48 2058.83 1307.34C2058.89 1306.96 2058.91 1306.6 2058.93 1306.21C2058.93 1306.58 2058.89 1306.96 2058.83 1307.34C2063.23 1305.37 2067.17 1302.71 2070.59 1299.31C2072.06 1299.54 2073.3 1299.25 2074.11 1297.86C2073.99 1296.23 2073.95 1294.66 2074.11 1293.23C2073.97 1294.66 2073.99 1296.23 2074.11 1297.86C2078.72 1294.85 2083.27 1291.79 2083.82 1285.62C2087.53 1286.86 2089.27 1284.79 2090.34 1281.64C2105.29 1264.18 2112.67 1242.91 2120.38 1221.82C2125.35 1208.18 2128.92 1193.95 2136.7 1181.47C2138.04 1179.32 2139.63 1177.35 2141.23 1175.4C2143.51 1172.65 2146.74 1171.9 2149.84 1172.96C2153.28 1174.14 2152.67 1177.64 2152.38 1180.36ZM2154.08 1110.57C2151.44 1111.63 2148.96 1109.87 2147.08 1108.39C2138.39 1101.53 2134.29 1091.54 2132.1 1081.37C2127.72 1061.16 2122.1 1041.21 2113.51 1022.66C2105.27 1004.84 2092.79 989.422 2075.41 978.598C2067.76 973.836 2059.9 970.336 2051.34 968.003C2047.13 966.855 2043.79 964.733 2043.42 959.684C2043.08 954.979 2045.41 952.436 2049.1 949.644C2060.32 941.153 2068.16 929.659 2075.54 917.859C2093.25 889.537 2089.21 858.058 2088.39 827.192C2087.99 812.275 2085.87 797.378 2089.73 782.652C2090.86 778.292 2092.71 773.683 2097.8 772.994C2103.84 772.172 2105 777.89 2106.15 781.734C2112.79 803.899 2119 826.198 2125.25 848.477C2133.57 878.158 2138.54 908.546 2143.43 938.896C2147.1 961.692 2149.67 984.679 2152.02 1007.65C2153.22 1019.31 2155.44 1030.98 2153.89 1042.15C2155.25 1063.16 2156.7 1083.49 2156.01 1103.88C2155.94 1106.21 2157.29 1109.33 2154.12 1110.59L2154.08 1110.57Z" fill="#D7C9B4" fill-opacity="0.15"/>
</svg>
