<svg width="290" height="90" viewBox="0 0 290 90" fill="none" xmlns="http://www.w3.org/2000/svg">
<g clip-path="url(#clip0_385_665)">
<path fill-rule="evenodd" clip-rule="evenodd" d="M25 0C11.1929 0 0 11.1929 0 25V65C0 78.8071 11.1929 90 25 90H265C278.807 90 290 78.8071 290 65V25C290 11.1929 278.807 0 265 0H25ZM25 7.57529C15.0589 7.57529 7 15.6342 7 25.5753V65.1753C7 75.1164 15.0589 83.1753 25 83.1753H264.954C274.895 83.1753 282.954 75.1164 282.954 65.1753V25.5753C282.954 15.6342 274.895 7.57529 264.954 7.57529H25Z" fill="url(#paint0_linear_385_665)"/>
</g>
<defs>
<linearGradient id="paint0_linear_385_665" x1="290" y1="-13.2353" x2="268.08" y2="130.799" gradientUnits="userSpaceOnUse">
<stop offset="0.15625" stop-color="#CA8341"/>
<stop offset="0.369792" stop-color="#FBD77D"/>
<stop offset="0.484375" stop-color="#FFECBE"/>
<stop offset="0.635417" stop-color="#FBD77D"/>
<stop offset="0.84375" stop-color="#CA8341"/>
</linearGradient>
<clipPath id="clip0_385_665">
<rect width="290" height="90" rx="25" fill="white"/>
</clipPath>
</defs>
</svg>
