<svg width="49" height="49" viewBox="0 0 49 49" fill="none" xmlns="http://www.w3.org/2000/svg">
<rect y="49" width="49" height="49" rx="24.5" transform="rotate(-90 0 49)" fill="url(#paint0_linear_1376_2085)"/>
<path d="M29.8439 11.2002H17.8608C14.0178 11.2002 10.9023 14.3419 10.9023 18.2173V30.6131C10.9023 34.4886 14.0178 37.6302 17.8608 37.6302H29.8439C33.6869 37.6302 36.8023 34.4886 36.8023 30.6131V18.2173C36.8023 14.3419 33.6869 11.2002 29.8439 11.2002Z" stroke="url(#paint1_linear_1376_2085)" stroke-width="2"/>
<path d="M23.8514 30.9115C27.3744 30.9115 30.2302 28.0316 30.2302 24.479C30.2302 20.9263 27.3744 18.0464 23.8514 18.0464C20.3285 18.0464 17.4727 20.9263 17.4727 24.479C17.4727 28.0316 20.3285 30.9115 23.8514 30.9115Z" stroke="url(#paint2_linear_1376_2085)" stroke-width="2"/>
<path d="M31.3493 18.5533C32.2778 18.5533 33.0305 17.7942 33.0305 16.8578C33.0305 15.9214 32.2778 15.1624 31.3493 15.1624C30.4207 15.1624 29.668 15.9214 29.668 16.8578C29.668 17.7942 30.4207 18.5533 31.3493 18.5533Z" fill="url(#paint3_linear_1376_2085)"/>
<defs>
<linearGradient id="paint0_linear_1376_2085" x1="-1.96" y1="50.96" x2="37.73" y2="109.27" gradientUnits="userSpaceOnUse">
<stop stop-color="#F5D894"/>
<stop offset="0.0001" stop-color="white"/>
<stop offset="0.187138" stop-color="#DDC17E"/>
<stop offset="0.53" stop-color="white"/>
<stop offset="0.881355" stop-color="#DDC17E"/>
<stop offset="1" stop-color="#F1CE7D"/>
</linearGradient>
<linearGradient id="paint1_linear_1376_2085" x1="18.9961" y1="-372.036" x2="42.3689" y2="-371.507" gradientUnits="userSpaceOnUse">
<stop stop-color="#713513"/>
<stop offset="0.245" stop-color="#BE7C4D"/>
<stop offset="0.475" stop-color="#FFECBE"/>
<stop offset="0.77" stop-color="#BE7C4D"/>
<stop offset="1" stop-color="#713513"/>
</linearGradient>
<linearGradient id="paint2_linear_1376_2085" x1="21.4594" y1="-168.498" x2="32.972" y2="-168.235" gradientUnits="userSpaceOnUse">
<stop stop-color="#713513"/>
<stop offset="0.245" stop-color="#BE7C4D"/>
<stop offset="0.475" stop-color="#FFECBE"/>
<stop offset="0.77" stop-color="#BE7C4D"/>
<stop offset="1" stop-color="#713513"/>
</linearGradient>
<linearGradient id="paint3_linear_1376_2085" x1="29" y1="19" x2="34.4997" y2="18.957" gradientUnits="userSpaceOnUse">
<stop stop-color="#713513"/>
<stop offset="0.0001" stop-color="#713513"/>
<stop offset="0.305" stop-color="#BE7C4D"/>
<stop offset="0.53" stop-color="#FFECBE"/>
<stop offset="0.71" stop-color="#BE7C4D"/>
<stop offset="1" stop-color="#713513"/>
</linearGradient>
</defs>
</svg>
