<svg width="52" height="52" viewBox="0 0 52 52" fill="none" xmlns="http://www.w3.org/2000/svg">
<mask id="path-1-inside-1_1838_53" fill="white">
<path fill-rule="evenodd" clip-rule="evenodd" d="M26.6046 8.20363C26.2471 7.93212 25.7525 7.93212 25.395 8.20363C24.8319 8.63121 21.0963 11.562 18.682 16.6122C14.9744 14.4706 11.5537 13.937 10.945 13.8528C10.5015 13.7915 10.0714 14.0323 9.89188 14.4424C9.62397 15.0544 7.8903 19.1862 8.19316 24.4562C5.80852 24.5682 4.09723 25.0646 3.70702 25.1842C3.28089 25.3148 2.99261 25.7116 3.00014 26.1572C3.01509 27.0412 3.29584 35.5279 10.4187 40.6915C17.0447 45.4954 24.2724 43.7975 25.9972 43.2953C27.7122 43.7954 34.9482 45.5022 41.5813 40.6931C48.7041 35.5295 48.9849 27.0428 48.9998 26.1588C49.0073 25.7147 48.721 25.3188 48.2967 25.187C47.9036 25.0648 46.2207 24.5567 43.8066 24.4519C44.1083 19.1839 42.3755 15.0542 42.1076 14.4424C41.9281 14.0323 41.498 13.7915 41.0546 13.8528C40.4458 13.937 37.0251 14.4706 33.3175 16.6122C30.9033 11.562 27.1676 8.63121 26.6046 8.20363ZM34.103 18.4699C34.8863 20.5934 35.3983 23.0217 35.386 25.733V25.7331C35.3541 32.5941 32.0896 37.5274 29.5311 40.3458C32.5879 39.2589 36.8442 36.9339 39.5886 32.0357C43.3969 25.2392 41.4091 18.2734 40.5628 15.9673C39.3003 16.2225 36.7646 16.8878 34.103 18.4699ZM22.4684 40.3458C19.91 37.5274 16.6454 32.5941 16.6135 25.7331V25.733C16.6012 23.0217 17.1132 20.5934 17.8966 18.4699C15.2349 16.8878 12.6992 16.2225 11.4367 15.9673C10.5904 18.2734 8.6026 25.2392 12.4109 32.0357L12.4109 32.0358C15.1553 36.9339 19.4116 39.2589 22.4684 40.3458ZM18.6135 25.724C18.5757 17.3846 24.0592 11.9508 25.9998 10.2881C27.9403 11.9508 33.4238 17.3846 33.3861 25.724C33.3469 34.1383 27.911 39.3883 25.9998 40.9778C24.0885 39.3883 18.6526 34.1382 18.6135 25.724ZM10.6661 33.0134C13.5279 38.1209 17.8479 40.7028 21.1678 41.9949C18.4674 42.0485 14.9349 41.4954 11.5926 39.0723L11.5926 39.0723C6.23398 35.1876 5.2309 29.1103 5.04274 26.8973C5.77137 26.7268 6.95257 26.5078 8.40399 26.4489C8.73179 28.5578 9.42052 30.7904 10.6661 33.0134ZM43.5961 26.4451C43.2686 28.5551 42.5797 30.7891 41.3334 33.0134C38.4705 38.1229 34.1482 40.7048 30.8278 41.9965C33.5288 42.0507 37.0633 41.4984 40.4073 39.0739L40.4074 39.0739C45.7706 35.1859 46.7708 29.1016 46.9577 26.8933C46.2356 26.7197 45.0634 26.4987 43.5961 26.4451Z"/>
</mask>
<path d="M25.395 8.20363L26.6046 9.79638L26.6046 9.79637L25.395 8.20363ZM26.6046 8.20363L27.8142 6.61088V6.61088L26.6046 8.20363ZM18.682 16.6122L17.6817 18.344L19.5539 19.4255L20.4864 17.4748L18.682 16.6122ZM10.945 13.8528L11.2189 11.8717H11.2189L10.945 13.8528ZM9.89188 14.4424L11.724 15.2444L11.724 15.2444L9.89188 14.4424ZM8.19316 24.4562L8.28699 26.454L10.3058 26.3592L10.1899 24.3415L8.19316 24.4562ZM3.70702 25.1842L3.12106 23.272L3.12104 23.272L3.70702 25.1842ZM3.00014 26.1572L1.00043 26.191L3.00014 26.1572ZM10.4187 40.6915L11.5926 39.0723L11.5926 39.0723L10.4187 40.6915ZM25.9972 43.2953L26.5571 41.3753L25.9977 41.2122L25.4382 41.375L25.9972 43.2953ZM41.5813 40.6931L40.4074 39.0739L40.4073 39.0739L41.5813 40.6931ZM48.9998 26.1588L47.0001 26.125V26.125L48.9998 26.1588ZM48.2967 25.187L48.8903 23.2771L48.8903 23.2771L48.2967 25.187ZM43.8066 24.4519L41.8099 24.3376L41.6939 26.3621L43.7199 26.45L43.8066 24.4519ZM42.1076 14.4424L40.2755 15.2444V15.2444L42.1076 14.4424ZM41.0546 13.8528L41.3285 15.834V15.834L41.0546 13.8528ZM33.3175 16.6122L31.5131 17.4748L32.4456 19.4255L34.3178 18.344L33.3175 16.6122ZM34.103 18.4699L33.081 16.7507L31.6507 17.601L32.2266 19.1621L34.103 18.4699ZM35.386 25.733L33.386 25.724V25.733H35.386ZM35.386 25.7331L37.386 25.7424V25.7331H35.386ZM29.5311 40.3458L28.0503 39.0016L30.2012 42.2302L29.5311 40.3458ZM39.5886 32.0357L37.8439 31.0581L37.8438 31.0581L39.5886 32.0357ZM40.5628 15.9673L42.4404 15.2782L41.849 13.6668L40.1665 14.0069L40.5628 15.9673ZM22.4684 40.3458L21.7983 42.2303L23.9493 39.0016L22.4684 40.3458ZM16.6135 25.7331H14.6135L14.6135 25.7424L16.6135 25.7331ZM16.6135 25.733H18.6135L18.6135 25.724L16.6135 25.733ZM17.8966 18.4699L19.773 19.1621L20.3488 17.601L18.9185 16.7508L17.8966 18.4699ZM11.4367 15.9673L11.8331 14.0069L10.1505 13.6668L9.55913 15.2782L11.4367 15.9673ZM12.4109 32.0357L10.6661 33.0134L10.6806 33.0393L10.6959 33.0647L12.4109 32.0357ZM12.4109 32.0358L14.1557 31.0581L14.1412 31.0322L14.1259 31.0068L12.4109 32.0358ZM25.9998 10.2881L27.3011 8.76934L25.9998 7.65437L24.6985 8.76934L25.9998 10.2881ZM18.6135 25.724L16.6135 25.733L16.6135 25.7333L18.6135 25.724ZM33.3861 25.724L35.386 25.7333L35.386 25.733L33.3861 25.724ZM25.9998 40.9778L24.7209 42.5155L25.9998 43.5791L27.2786 42.5155L25.9998 40.9778ZM21.1678 41.9949L21.2075 43.9945L21.8932 40.1311L21.1678 41.9949ZM10.6661 33.0134L12.4109 32.0358L12.4109 32.0357L10.6661 33.0134ZM11.5926 39.0723L10.4 40.6778L10.4093 40.6847L10.4187 40.6915L11.5926 39.0723ZM11.5926 39.0723L12.7852 37.4668L12.7759 37.4599L12.7665 37.453L11.5926 39.0723ZM5.04274 26.8973L4.58705 24.9499L2.90344 25.3439L3.04993 27.0667L5.04274 26.8973ZM8.40399 26.4489L10.3803 26.1417L10.1061 24.3781L8.32283 24.4505L8.40399 26.4489ZM41.3334 33.0134L39.5886 32.0357L39.5886 32.0358L41.3334 33.0134ZM43.5961 26.4451L43.6691 24.4464L41.8925 24.3815L41.6198 26.1383L43.5961 26.4451ZM30.8278 41.9965L30.1027 40.1325L30.7876 43.996L30.8278 41.9965ZM40.4073 39.0739L39.2364 37.4526L39.2334 37.4547L40.4073 39.0739ZM40.4074 39.0739L41.5784 40.6953L41.5813 40.6932L40.4074 39.0739ZM46.9577 26.8933L48.9506 27.062L49.0955 25.35L47.4249 24.9486L46.9577 26.8933ZM26.6046 9.79637C26.2471 10.0679 25.7525 10.0679 25.395 9.79637L27.8142 6.61088C26.7417 5.79637 25.2578 5.79637 24.1854 6.61088L26.6046 9.79637ZM20.4864 17.4748C22.7004 12.8437 26.1453 10.1452 26.6046 9.79638L24.1854 6.61088C23.5186 7.11727 19.4922 10.2804 16.8776 15.7496L20.4864 17.4748ZM10.671 15.834C11.1543 15.9008 14.289 16.3844 17.6817 18.344L19.6824 14.8803C15.6599 12.5569 11.9532 11.9732 11.2189 11.8717L10.671 15.834ZM11.724 15.2444C11.5445 15.6545 11.1144 15.8953 10.671 15.834L11.2189 11.8717C9.88869 11.6877 8.59822 12.4102 8.05972 13.6404L11.724 15.2444ZM10.1899 24.3415C9.91337 19.5302 11.5076 15.7389 11.724 15.2444L8.05972 13.6404C7.7404 14.3699 5.86723 18.8422 6.19646 24.571L10.1899 24.3415ZM4.29298 27.0964C4.5876 27.0062 6.12523 26.5556 8.28699 26.454L8.09934 22.4584C5.4918 22.5809 3.60685 23.1231 3.12106 23.272L4.29298 27.0964ZM4.99986 26.1234C5.00739 26.569 4.71911 26.9659 4.29299 27.0964L3.12104 23.272C1.84266 23.6637 0.977823 24.8542 1.00043 26.191L4.99986 26.1234ZM11.5926 39.0723C5.2977 34.5088 5.01332 26.9196 4.99986 26.1234L1.00043 26.191C1.01686 27.1627 1.29398 36.5469 9.24482 42.3108L11.5926 39.0723ZM25.4382 41.375C23.8795 41.8288 17.4443 43.3148 11.5926 39.0723L9.24475 42.3107C16.6451 47.6761 24.6652 45.7661 26.5563 45.2156L25.4382 41.375ZM40.4073 39.0739C34.5494 43.321 28.1065 41.8271 26.5571 41.3753L25.4373 45.2154C27.3178 45.7637 35.347 47.6833 42.7552 42.3124L40.4073 39.0739ZM47.0001 26.125C46.9867 26.9212 46.7023 34.5104 40.4074 39.0739L42.7552 42.3124C50.706 36.5485 50.9831 27.1644 50.9995 26.1926L47.0001 26.125ZM47.7032 27.0969C47.279 26.965 46.9926 26.5692 47.0001 26.125L50.9995 26.1927C51.0221 24.8602 50.1629 23.6726 48.8903 23.2771L47.7032 27.0969ZM43.7199 26.45C45.8983 26.5446 47.3998 27.0026 47.7032 27.0969L48.8903 23.2771C48.4073 23.127 46.5431 22.5688 43.8933 22.4538L43.7199 26.45ZM40.2755 15.2444C40.4919 15.7388 42.0853 19.5281 41.8099 24.3376L45.8033 24.5663C46.1312 18.8397 44.259 14.3697 43.9398 13.6404L40.2755 15.2444ZM41.3285 15.834C40.8851 15.8953 40.455 15.6545 40.2755 15.2444L43.9398 13.6404C43.4013 12.4102 42.1108 11.6877 40.7806 11.8717L41.3285 15.834ZM34.3178 18.344C37.7105 16.3844 40.8452 15.9008 41.3285 15.834L40.7806 11.8717C40.0463 11.9732 36.3396 12.5569 32.3172 14.8803L34.3178 18.344ZM25.395 9.79637C25.8542 10.1452 29.2992 12.8437 31.5131 17.4748L35.1219 15.7496C32.5073 10.2804 28.481 7.11727 27.8142 6.61088L25.395 9.79637ZM32.2266 19.1621C32.9354 21.0838 33.3971 23.2749 33.3861 25.724L37.386 25.7421C37.3995 22.7684 36.8371 20.103 35.9794 17.7778L32.2266 19.1621ZM33.386 25.733V25.7331H37.386V25.733H33.386ZM33.3861 25.7238C33.3573 31.9196 30.4136 36.3981 28.0503 39.0016L31.012 41.6901C33.7656 38.6567 37.351 33.2686 37.386 25.7424L33.3861 25.7238ZM30.2012 42.2302C33.5346 41.0449 38.2733 38.4748 41.3334 33.0133L37.8438 31.0581C35.4151 35.3929 31.6413 37.4728 28.861 38.4614L30.2012 42.2302ZM41.3334 33.0134C45.5802 25.4343 43.3466 17.7476 42.4404 15.2782L38.6853 16.6563C39.4716 18.7991 41.2137 25.0441 37.8439 31.0581L41.3334 33.0134ZM40.1665 14.0069C38.7677 14.2898 35.9984 15.0166 33.081 16.7507L35.1249 20.1891C37.5308 18.759 39.8329 18.1553 40.9592 17.9276L40.1665 14.0069ZM23.9493 39.0016C21.586 36.3981 18.6423 31.9196 18.6135 25.7238L14.6135 25.7424C14.6485 33.2686 18.234 38.6567 20.9876 41.6901L23.9493 39.0016ZM18.6135 25.7331V25.733H14.6135V25.7331H18.6135ZM18.6135 25.724C18.6024 23.2749 19.0641 21.0838 19.773 19.1621L16.0202 17.7778C15.1624 20.103 14.6001 22.7684 14.6135 25.7421L18.6135 25.724ZM18.9185 16.7508C16.0011 15.0166 13.2318 14.2898 11.8331 14.0069L11.0403 17.9276C12.1666 18.1553 14.4687 18.759 16.8746 20.1891L18.9185 16.7508ZM9.55913 15.2782C8.6529 17.7476 6.41934 25.4343 10.6661 33.0134L14.1557 31.0581C10.7859 25.0441 12.5279 18.7991 13.3142 16.6563L9.55913 15.2782ZM10.6959 33.0647L10.6959 33.0647L14.1259 31.0068L14.1259 31.0067L10.6959 33.0647ZM10.6661 33.0134C13.7262 38.4748 18.4649 41.0449 21.7983 42.2303L23.1385 38.4614C20.3583 37.4728 16.5845 35.3929 14.1557 31.0581L10.6661 33.0134ZM24.6985 8.76934C22.6241 10.5467 16.5717 16.4926 16.6135 25.733L20.6135 25.7149C20.5798 18.2767 25.4943 13.3549 27.3011 11.8069L24.6985 8.76934ZM35.386 25.733C35.4279 16.4926 29.3754 10.5467 27.3011 8.76934L24.6985 11.8069C26.5052 13.3549 31.4198 18.2767 31.3861 25.7149L35.386 25.733ZM27.2786 42.5155C29.3442 40.7977 35.3427 35.041 35.386 25.7333L31.3861 25.7146C31.3511 33.2355 26.4778 37.979 24.7209 39.4401L27.2786 42.5155ZM16.6135 25.7333C16.6568 35.041 22.6553 40.7977 24.7209 42.5155L27.2786 39.4401C25.5217 37.9789 20.6484 33.2355 20.6135 25.7147L16.6135 25.7333ZM21.8932 40.1311C18.8552 38.9487 14.9779 36.6172 12.4109 32.0358L8.92133 33.991C12.0779 39.6247 16.8407 42.457 20.4424 43.8587L21.8932 40.1311ZM10.4187 40.6915C14.2079 43.4387 18.2054 44.0541 21.2075 43.9945L21.1282 39.9953C18.7293 40.0429 15.6618 39.5521 12.7666 37.4531L10.4187 40.6915ZM10.3999 40.6778L10.4 40.6778L12.7853 37.4668L12.7852 37.4668L10.3999 40.6778ZM3.04993 27.0667C3.25313 29.4566 4.33925 36.2843 10.4187 40.6916L12.7665 37.453C8.12872 34.0909 7.20866 28.7639 7.03555 26.7278L3.04993 27.0667ZM8.32283 24.4505C6.71835 24.5157 5.40933 24.7575 4.58705 24.9499L5.49842 28.8447C6.13342 28.6961 7.18679 28.5 8.48515 28.4472L8.32283 24.4505ZM12.4109 32.0357C11.2932 30.041 10.6752 28.0394 10.3803 26.1417L6.42772 26.7561C6.78836 29.0763 7.54785 31.5398 8.92135 33.991L12.4109 32.0357ZM43.0782 33.991C44.4525 31.5383 45.2121 29.0733 45.5724 26.7519L41.6198 26.1383C41.325 28.037 40.707 30.0398 39.5886 32.0357L43.0782 33.991ZM31.5528 43.8604C35.1551 42.4592 39.9204 39.6269 43.0782 33.991L39.5886 32.0358C37.0206 36.619 33.1413 38.9505 30.1027 40.1325L31.5528 43.8604ZM39.2334 37.4547C36.3366 39.5549 33.2673 40.0451 30.868 39.9969L30.7876 43.996C33.7903 44.0564 37.79 43.4418 41.5813 40.6931L39.2334 37.4547ZM39.2364 37.4525L39.2364 37.4526L41.5783 40.6953L41.5784 40.6952L39.2364 37.4525ZM44.9648 26.7246C44.7929 28.7563 43.8753 34.0896 39.2335 37.4546L41.5813 40.6932C47.6658 36.2822 48.7487 29.4468 48.9506 27.062L44.9648 26.7246ZM43.5231 28.4437C44.8311 28.4915 45.8691 28.6886 46.4905 28.8379L47.4249 24.9486C46.602 24.7509 45.2957 24.5058 43.6691 24.4464L43.5231 28.4437Z" fill="url(#paint0_linear_1838_53)" mask="url(#path-1-inside-1_1838_53)"/>
<defs>
<linearGradient id="paint0_linear_1838_53" x1="-15.5" y1="0.499999" x2="40.2811" y2="61.9146" gradientUnits="userSpaceOnUse">
<stop stop-color="#160D0B"/>
<stop offset="0.19" stop-color="#CB8001"/>
<stop offset="0.32" stop-color="#FCDA84"/>
<stop offset="0.475" stop-color="#FFECBE"/>
<stop offset="0.635" stop-color="#FCDA84"/>
<stop offset="0.825" stop-color="#CB8001"/>
<stop offset="1" stop-color="#160D0B"/>
</linearGradient>
</defs>
</svg>
