<svg width="23" height="18" viewBox="0 0 23 18" fill="none" xmlns="http://www.w3.org/2000/svg">
<mask id="path-1-inside-1_2018_21" fill="white">
<path fill-rule="evenodd" clip-rule="evenodd" d="M11.8042 0.101813C11.6255 -0.0339376 11.3782 -0.0339376 11.1994 0.101813C10.9179 0.315644 9.04944 1.78152 7.84234 4.30743C5.98766 3.23554 4.27601 2.96852 3.9715 2.92641C3.74979 2.89574 3.53471 3.01616 3.44496 3.22119C3.31101 3.52721 2.44417 5.59312 2.59561 8.22816C1.40379 8.28425 0.54856 8.53233 0.353509 8.5921C0.140444 8.65739 -0.00369564 8.8558 7.21494e-05 9.07862C0.0075461 9.52059 0.147919 13.7639 3.70935 16.3458C7.02236 18.7477 10.6362 17.8987 11.4986 17.6477C12.3561 17.8977 15.9741 18.7511 19.2906 16.3466C22.8521 13.7648 22.9925 9.52139 22.9999 9.07942C23.0037 8.85734 22.8605 8.6594 22.6484 8.59349C22.4518 8.5324 21.6104 8.27834 20.4033 8.22596C20.5541 5.59197 19.6877 3.52712 19.5538 3.22119C19.4641 3.01616 19.249 2.89574 19.0273 2.92641C18.723 2.96849 17.0135 3.23517 15.1603 4.30521C13.9531 1.78067 12.0857 0.315581 11.8042 0.101813ZM15.5531 5.23402C15.9449 6.29599 16.2011 7.51043 16.195 8.86651V8.86657C16.179 12.2962 14.5475 14.7625 13.2684 16.1719C14.7967 15.628 16.923 14.4654 18.2943 12.0179C20.1985 8.61962 19.2046 5.13669 18.7814 3.98364C18.1504 4.11122 16.8833 4.44363 15.5531 5.23402ZM9.73756 16.1745C8.45813 14.7655 6.82466 12.2983 6.80871 8.86657L6.80871 8.86651C6.80257 7.51145 7.05835 6.29781 7.44971 5.2364C6.11802 4.44429 4.84901 4.11135 4.21737 3.98364C3.79422 5.13669 2.80032 8.61962 4.70447 12.0179L4.70447 12.0179C6.07798 14.4693 8.20883 15.6316 9.73756 16.1745ZM7.8087 8.86198C7.78981 4.69232 10.5316 1.9754 11.5018 1.14405C12.4721 1.9754 15.2139 4.69232 15.195 8.86198C15.1754 13.0691 12.4575 15.6942 11.5018 16.4889C10.5462 15.6942 7.82825 13.0691 7.8087 8.86198ZM3.83208 12.5067C5.26298 15.0605 7.42303 16.3514 9.08298 16.9975C7.73288 17.0241 5.96705 16.7474 4.29632 15.5362L4.2963 15.5361C1.61699 13.5938 1.11545 10.5551 1.02137 9.44864C1.38553 9.36343 1.97576 9.25402 2.70103 9.22449C2.86493 10.2789 3.20929 11.3952 3.83208 12.5067ZM20.2981 9.22254C20.1343 10.2776 19.7899 11.3945 19.1667 12.5067C17.7353 15.0615 15.5741 16.3524 13.9139 16.9982C15.2644 17.0254 17.0317 16.7492 18.7037 15.537L18.7037 15.537C21.3853 13.593 21.8854 10.5508 21.9789 9.44663C21.6178 9.35987 21.0317 9.24934 20.2981 9.22254Z"/>
</mask>
<path d="M11.1994 0.101813L11.8042 0.898188L11.8042 0.898187L11.1994 0.101813ZM11.8042 0.101813L11.1994 0.898187L11.1994 0.898188L11.8042 0.101813ZM7.84234 4.30743L7.34195 5.17323L8.27829 5.71438L8.7446 4.73861L7.84234 4.30743ZM3.9715 2.92641L3.83451 3.91698L3.83451 3.91698L3.9715 2.92641ZM3.44496 3.22119L4.36104 3.62219L4.36104 3.62219L3.44496 3.22119ZM2.59561 8.22816L2.64262 9.22706L3.65194 9.17956L3.59396 8.17078L2.59561 8.22816ZM0.353509 8.5921L0.0605296 7.63598L0.0605226 7.63599L0.353509 8.5921ZM7.21494e-05 9.07862L-0.999785 9.09552V9.09552L7.21494e-05 9.07862ZM3.70935 16.3458L4.29632 15.5362L4.29628 15.5361L3.70935 16.3458ZM11.4986 17.6477L11.7786 16.6877L11.4989 16.6061L11.2191 16.6875L11.4986 17.6477ZM19.2906 16.3466L18.7037 15.5369L18.7037 15.537L19.2906 16.3466ZM22.9999 9.07942L22.0001 9.0625V9.06251L22.9999 9.07942ZM22.6484 8.59349L22.9451 7.63854L22.9451 7.63854L22.6484 8.59349ZM20.4033 8.22596L19.4049 8.16879L19.347 9.18107L20.36 9.22502L20.4033 8.22596ZM19.5538 3.22119L18.6377 3.62219V3.62219L19.5538 3.22119ZM19.0273 2.92641L19.1643 3.91698L19.1643 3.91698L19.0273 2.92641ZM15.1603 4.30521L14.2581 4.73659L14.7243 5.71165L15.6603 5.17121L15.1603 4.30521ZM15.5531 5.23402L15.0423 4.37432L14.3268 4.79943L14.6149 5.58019L15.5531 5.23402ZM16.195 8.86651L15.195 8.86198V8.86651H16.195ZM16.195 8.86657L17.195 8.87122V8.86657H16.195ZM13.2684 16.1719L12.5279 15.4998L13.6038 17.114L13.2684 16.1719ZM18.2943 12.0179L17.4219 11.529L17.4219 11.5291L18.2943 12.0179ZM18.7814 3.98364L19.7202 3.63912L19.4245 2.83338L18.5832 3.00347L18.7814 3.98364ZM9.73756 16.1745L9.40294 17.1168L10.4779 15.5022L9.73756 16.1745ZM6.80871 8.86657L7.8087 8.86192L7.80867 8.85863L6.80871 8.86657ZM6.80871 8.86651L5.80871 8.87104L5.80874 8.87445L6.80871 8.86651ZM7.44971 5.2364L8.38796 5.58236L8.67566 4.80209L7.96093 4.37695L7.44971 5.2364ZM4.21737 3.98364L4.41555 3.00347L3.57429 2.83338L3.27859 3.63912L4.21737 3.98364ZM4.70447 12.0179L3.83209 12.5067L3.83934 12.5196L3.84698 12.5324L4.70447 12.0179ZM4.70447 12.0179L5.57687 11.5291L5.56961 11.5161L5.56197 11.5034L4.70447 12.0179ZM11.5018 1.14405L12.1525 0.384672L11.5018 -0.172816L10.8512 0.384672L11.5018 1.14405ZM7.8087 8.86198L6.80871 8.86651L6.80871 8.86663L7.8087 8.86198ZM15.195 8.86198L16.195 8.86664V8.86651L15.195 8.86198ZM11.5018 16.4889L10.8624 17.2578L11.5018 17.7895L12.1413 17.2578L11.5018 16.4889ZM9.08298 16.9975L9.10271 17.9973L9.44568 16.0656L9.08298 16.9975ZM3.83208 12.5067L4.70447 12.0179L4.70446 12.0179L3.83208 12.5067ZM4.29632 15.5362L4.88328 14.7265L4.87266 14.7188L4.86184 14.7114L4.29632 15.5362ZM4.2963 15.5361L3.70936 16.3458L3.71997 16.3535L3.73077 16.3609L4.2963 15.5361ZM1.02137 9.44864L0.793526 8.47495L-0.0482788 8.67193L0.0249638 9.53336L1.02137 9.44864ZM2.70103 9.22449L3.68916 9.07089L3.55208 8.189L2.66034 8.22531L2.70103 9.22449ZM19.1667 12.5067L18.2943 12.0179L18.2943 12.0179L19.1667 12.5067ZM20.2981 9.22254L20.3346 8.22321L19.4463 8.19076L19.3099 9.06914L20.2981 9.22254ZM13.9139 16.9982L13.5514 16.0663L13.8938 17.998L13.9139 16.9982ZM18.7037 15.537L18.149 14.7049L18.1326 14.7158L18.1167 14.7274L18.7037 15.537ZM18.7037 15.537L19.2584 16.369L19.2747 16.3581L19.2906 16.3466L18.7037 15.537ZM21.9789 9.44663L22.9753 9.53098L23.0478 8.67498L22.2125 8.4743L21.9789 9.44663ZM11.8042 0.898187C11.6255 1.03394 11.3782 1.03394 11.1994 0.898187L12.409 -0.694562C11.8728 -1.10181 11.1309 -1.10181 10.5946 -0.694562L11.8042 0.898187ZM8.7446 4.73861C9.85154 2.4223 11.5746 1.07262 11.8042 0.898188L10.5946 -0.694563C10.2612 -0.441328 8.24734 1.14074 6.94007 3.87624L8.7446 4.73861ZM3.83451 3.91698C4.07627 3.95041 5.64483 4.1924 7.34195 5.17323L8.34272 3.44162C6.33049 2.27868 4.47575 1.98662 4.1085 1.93583L3.83451 3.91698ZM4.36104 3.62219C4.27129 3.82723 4.05622 3.94764 3.83451 3.91698L4.1085 1.93583C3.44337 1.84385 2.79814 2.20509 2.52888 2.8202L4.36104 3.62219ZM3.59396 8.17078C3.4557 5.76512 4.2528 3.86947 4.36104 3.62219L2.52888 2.8202C2.36922 3.18495 1.43263 5.42111 1.59726 8.28554L3.59396 8.17078ZM0.646489 9.54822C0.79376 9.50309 1.5622 9.2779 2.64262 9.22706L2.5486 7.22927C1.24539 7.29059 0.303361 7.56157 0.0605296 7.63598L0.646489 9.54822ZM0.99993 9.06171C1.0037 9.28452 0.859557 9.48293 0.646496 9.54822L0.0605226 7.63599C-0.578669 7.83186 -1.01109 8.42708 -0.999785 9.09552L0.99993 9.06171ZM4.29628 15.5361C1.14885 13.2544 1.00666 9.45981 0.99993 9.06171L-0.999785 9.09552C-0.99157 9.58137 -0.853011 14.2734 3.12241 17.1554L4.29628 15.5361ZM11.2191 16.6875C10.4398 16.9144 7.22215 17.6574 4.29632 15.5362L3.12238 17.1554C6.82258 19.838 10.8326 18.8831 11.7781 18.6078L11.2191 16.6875ZM18.7037 15.537C15.7747 17.6605 12.5533 16.9136 11.7786 16.6877L11.2187 18.6077C12.1589 18.8819 16.1735 19.8417 19.8776 17.1562L18.7037 15.537ZM22.0001 9.06251C21.9933 9.46061 21.8512 13.2552 18.7037 15.5369L19.8776 17.1562C23.853 14.2743 23.9916 9.58218 23.9998 9.09632L22.0001 9.06251ZM22.3516 9.54844C22.1395 9.48253 21.9963 9.28459 22.0001 9.0625L23.9998 9.09634C24.0111 8.43009 23.5815 7.83628 22.9451 7.63854L22.3516 9.54844ZM20.36 9.22502C21.4491 9.27228 22.1999 9.5013 22.3516 9.54844L22.9451 7.63854C22.7037 7.5635 21.7716 7.28439 20.4467 7.2269L20.36 9.22502ZM18.6377 3.62219C18.746 3.86939 19.5426 5.76407 19.4049 8.16879L21.4017 8.28313C21.5656 5.41987 20.6295 3.18486 20.4699 2.8202L18.6377 3.62219ZM19.1643 3.91698C18.9426 3.94764 18.7275 3.82723 18.6377 3.62219L20.4699 2.8202C20.2007 2.20509 19.5554 1.84385 18.8903 1.93583L19.1643 3.91698ZM15.6603 5.17121C17.3561 4.19206 18.9227 3.95039 19.1643 3.91698L18.8903 1.93583C18.5233 1.98659 16.6708 2.27828 14.6603 3.4392L15.6603 5.17121ZM11.1994 0.898188C11.429 1.07255 13.1511 2.42151 14.2581 4.73659L16.0625 3.87383C14.7552 1.13982 12.7424 -0.441392 12.409 -0.694562L11.1994 0.898188ZM14.6149 5.58019C14.9695 6.54127 15.2005 7.6371 15.195 8.86198L17.195 8.87104C17.2017 7.38376 16.9204 6.05072 16.4913 4.88784L14.6149 5.58019ZM15.195 8.86651V8.86657H17.195V8.86651H15.195ZM15.195 8.86192C15.1806 11.9591 13.7095 14.198 12.5279 15.4998L14.009 16.8439C15.3856 15.3271 17.1775 12.6334 17.195 8.87122L15.195 8.86192ZM13.6038 17.114C15.2703 16.5208 17.6376 15.2357 19.1667 12.5067L17.4219 11.5291C16.2083 13.6951 14.323 14.7351 12.9331 15.2298L13.6038 17.114ZM19.1667 12.5067C21.2901 8.71717 20.1733 4.87381 19.7202 3.63912L17.8426 4.32816C18.2358 5.39957 19.1068 8.52207 17.4219 11.529L19.1667 12.5067ZM18.5832 3.00347C17.8841 3.14482 16.5003 3.508 15.0423 4.37432L16.0639 6.09371C17.2663 5.37926 18.4167 5.07762 18.9796 4.96381L18.5832 3.00347ZM10.4779 15.5022C9.29601 14.2007 7.8231 11.9609 7.8087 8.86192L5.80872 8.87122C5.82621 12.6357 7.62024 15.3303 8.99725 16.8467L10.4779 15.5022ZM7.80867 8.85863L7.80867 8.85857L5.80874 8.87445L5.80874 8.87451L7.80867 8.85863ZM7.8087 8.86198C7.80315 7.63801 8.03379 6.54291 8.38796 5.58236L6.51146 4.89045C6.08291 6.05272 5.80199 7.38488 5.80872 8.87104L7.8087 8.86198ZM7.96093 4.37695C6.50126 3.50872 5.11532 3.14496 4.41555 3.00347L4.01919 4.96381C4.58269 5.07774 5.73478 5.37987 6.9385 6.09586L7.96093 4.37695ZM3.27859 3.63912C2.82548 4.87381 1.7087 8.71716 3.83209 12.5067L5.57685 11.529C3.89195 8.52207 4.76296 5.39957 5.15615 4.32816L3.27859 3.63912ZM3.84698 12.5324L3.84698 12.5324L5.56197 11.5034L5.56196 11.5034L3.84698 12.5324ZM3.83208 12.5067C5.36356 15.24 7.73594 16.5249 9.40294 17.1168L10.0722 15.2321C8.68173 14.7384 6.7924 13.6985 5.57687 11.5291L3.83208 12.5067ZM10.8512 0.384672C9.81403 1.27333 6.78778 4.24628 6.80871 8.86651L8.80869 8.85745C8.79184 5.13835 11.2491 2.67747 12.1525 1.90343L10.8512 0.384672ZM16.195 8.86651C16.2159 4.24628 13.1897 1.27333 12.1525 0.384672L10.8512 1.90343C11.7546 2.67747 14.2118 5.13835 14.195 8.85745L16.195 8.86651ZM12.1413 17.2578C13.1741 16.3988 16.1733 13.5205 16.195 8.86664L14.195 8.85733C14.1775 12.6177 11.7409 14.9895 10.8624 15.72L12.1413 17.2578ZM6.80871 8.86663C6.83034 13.5205 9.82961 16.3988 10.8624 17.2578L12.1413 15.72C11.2628 14.9895 8.82616 12.6177 8.80869 8.85733L6.80871 8.86663ZM9.44568 16.0656C7.92664 15.4744 5.98798 14.3086 4.70447 12.0179L2.95969 12.9955C4.53798 15.8124 6.91943 17.2285 8.72028 17.9294L9.44568 16.0656ZM3.70935 16.3458C5.60354 17.7191 7.60179 18.0269 9.10271 17.9973L9.06325 15.9977C7.86396 16.0213 6.33056 15.7758 4.88328 14.7265L3.70935 16.3458ZM3.73077 16.3609L3.73079 16.3609L4.86184 14.7114L4.86183 14.7114L3.73077 16.3609ZM0.0249638 9.53336C0.126564 10.7283 0.669623 14.1422 3.70936 16.3458L4.88323 14.7265C2.56436 13.0455 2.10433 10.382 2.01777 9.36393L0.0249638 9.53336ZM2.66034 8.22531C1.8586 8.25796 1.20448 8.37878 0.793526 8.47495L1.24921 10.4223C1.56657 10.3481 2.09293 10.2501 2.74171 10.2237L2.66034 8.22531ZM4.70446 12.0179C4.14562 11.0205 3.83664 10.0197 3.68916 9.07089L1.71289 9.37808C1.89321 10.5382 2.27295 11.7699 2.9597 12.9955L4.70446 12.0179ZM20.0391 12.9955C20.7263 11.7692 21.106 10.5367 21.2862 9.37594L19.3099 9.06914C19.1625 10.0185 18.8535 11.0199 18.2943 12.0179L20.0391 12.9955ZM14.2764 17.9302C16.0775 17.2296 18.4602 15.8134 20.0391 12.9955L18.2943 12.0179C17.0103 14.3095 15.0707 15.4753 13.5514 16.0663L14.2764 17.9302ZM18.1167 14.7274C16.6683 15.7774 15.1337 16.0225 13.934 15.9984L13.8938 17.998C15.3951 18.0282 17.395 17.7209 19.2907 16.3466L18.1167 14.7274ZM18.149 14.7049L18.149 14.7049L19.2584 16.369L19.2584 16.369L18.149 14.7049ZM20.9824 9.36228C20.8964 10.3782 20.4376 13.0448 18.1168 14.7273L19.2906 16.3466C22.3329 14.1411 22.8744 10.7234 22.9753 9.53098L20.9824 9.36228ZM20.2616 10.2219C20.9156 10.2458 21.4346 10.3443 21.7453 10.419L22.2125 8.4743C21.801 8.37544 21.1479 8.25291 20.3346 8.22321L20.2616 10.2219Z" fill="url(#paint0_linear_2018_21)" mask="url(#path-1-inside-1_2018_21)"/>
<defs>
<linearGradient id="paint0_linear_2018_21" x1="-9.25001" y1="-3.75" x2="18.6406" y2="26.9573" gradientUnits="userSpaceOnUse">
<stop stop-color="#160D0B"/>
<stop offset="0.19" stop-color="#CB8001"/>
<stop offset="0.32" stop-color="#FCDA84"/>
<stop offset="0.475" stop-color="#FFECBE"/>
<stop offset="0.635" stop-color="#FCDA84"/>
<stop offset="0.825" stop-color="#CB8001"/>
<stop offset="1" stop-color="#160D0B"/>
</linearGradient>
</defs>
</svg>
