<svg width="49" height="49" viewBox="0 0 49 49" fill="none" xmlns="http://www.w3.org/2000/svg">
<rect y="49" width="49" height="49" rx="24.5" transform="rotate(-90 0 49)" fill="url(#paint0_linear_1376_2081)"/>
<path d="M35.99 15.3094C35.9965 15.6597 35.9453 16.0056 35.9057 16.3519C35.8341 16.9775 35.7544 17.6024 35.6707 18.2266C35.5775 18.9231 35.4801 19.6189 35.3776 20.3141C35.2524 21.1637 35.1232 22.0126 34.9904 22.861C34.835 23.8534 34.677 24.8454 34.5144 25.8365C34.3474 26.8533 34.176 27.8694 34.0016 28.8851C33.8246 29.9161 33.6442 30.9465 33.4604 31.9762C33.3681 32.4935 33.2866 33.0133 33.1651 33.525C33.0626 33.9569 32.9267 34.3769 32.7024 34.7626C32.658 34.8387 32.6093 34.9127 32.558 34.9843C32.2463 35.42 31.8305 35.6191 31.2932 35.5882C30.7975 35.5596 30.3462 35.4029 29.9138 35.1717C29.6355 35.0229 29.3693 34.8534 29.1142 34.6677C28.1817 33.9885 27.2154 33.3596 26.2631 32.71C24.9646 31.8244 23.6744 30.9265 22.3677 30.0532C22.0748 29.8575 21.799 29.6392 21.5665 29.37C21.4952 29.2875 21.4303 29.2001 21.374 29.1063C21.167 28.7615 21.1557 28.4093 21.3341 28.0497C21.4295 27.8574 21.5547 27.6854 21.6954 27.5254C21.8083 27.397 21.9241 27.2707 22.0445 27.1494C22.9056 26.281 23.7942 25.4418 24.6845 24.6042C26.0765 23.2946 27.4689 21.9855 28.8049 20.6167C29.0475 20.3683 29.2848 20.1149 29.5004 19.8415C29.6006 19.7145 29.6134 19.5776 29.5715 19.4292C29.5287 19.2779 29.4254 19.1941 29.269 19.1843C29.1169 19.1747 28.9739 19.2005 28.8389 19.281C28.3462 19.5751 27.8673 19.8912 27.3893 20.2084C24.5372 22.0998 21.7109 24.03 18.8833 25.9585C18.412 26.2799 17.9253 26.5697 17.3859 26.7612C17.0529 26.8794 16.711 26.9532 16.3588 26.964C16.0438 26.9737 15.7322 26.9252 15.4232 26.8664C14.414 26.6745 13.433 26.3759 12.4572 26.0581C11.9133 25.8809 11.3626 25.7237 10.8313 25.5083C10.6877 25.4499 10.5478 25.3838 10.4133 25.3064C10.2644 25.2208 10.1276 25.1188 10.022 24.9808C9.95397 24.8917 9.90342 24.7984 9.88657 24.6783C9.84591 24.3899 9.97129 24.1848 10.1625 23.9933C10.4235 23.732 10.731 23.5443 11.0618 23.3964C11.7069 23.1083 12.3579 22.8338 13.0046 22.5496C16.897 20.8392 20.7862 19.1213 24.6964 17.4526C26.936 16.4968 29.1809 15.5529 31.448 14.665C32.2067 14.3678 32.9675 14.0748 33.7549 13.8614C34.0487 13.7819 34.3457 13.7186 34.6521 13.7142C34.8341 13.7115 35.0116 13.7372 35.1861 13.7866C35.6386 13.9146 35.885 14.2194 35.9487 14.6864C35.9768 14.8935 35.9872 15.101 35.9898 15.3094H35.99Z" fill="url(#paint1_linear_1376_2081)"/>
<defs>
<linearGradient id="paint0_linear_1376_2081" x1="-1.96" y1="50.96" x2="37.73" y2="109.27" gradientUnits="userSpaceOnUse">
<stop stop-color="#F5D894"/>
<stop offset="0.0001" stop-color="white"/>
<stop offset="0.187138" stop-color="#DDC17E"/>
<stop offset="0.53" stop-color="white"/>
<stop offset="0.881355" stop-color="#DDC17E"/>
<stop offset="1" stop-color="#F1CE7D"/>
</linearGradient>
<linearGradient id="paint1_linear_1376_2081" x1="15.5" y1="33.5" x2="38.9744" y2="30.7793" gradientUnits="userSpaceOnUse">
<stop stop-color="#713513"/>
<stop offset="0.0001" stop-color="#713513"/>
<stop offset="0.305" stop-color="#BE7C4D"/>
<stop offset="0.53" stop-color="#FFECBE"/>
<stop offset="0.71" stop-color="#BE7C4D"/>
<stop offset="1" stop-color="#713513"/>
</linearGradient>
</defs>
</svg>
